<?xml version="1.0" encoding="UTF-8"?>
<svg version="1.1" xmlns="http://www.w3.org/2000/svg" width="3041" height="2999">
<path d="M0 0 C1.19595849 -0.00275974 2.39191698 -0.00551949 3.62411663 -0.00836286 C4.96065411 -0.00637477 6.29719147 -0.00429529 7.63372868 -0.00213462 C9.05217932 -0.00348028 10.47062959 -0.0052636 11.88907918 -0.00744686 C15.81368535 -0.01219863 19.73826846 -0.01066816 23.6628758 -0.00816908 C27.9228691 -0.00654223 32.18285733 -0.01067169 36.44284904 -0.01407826 C43.91864031 -0.01924413 51.3944251 -0.02064741 58.87021798 -0.01962215 C69.98814758 -0.01810111 81.10606999 -0.02225055 92.22399819 -0.02749677 C113.24082777 -0.03718625 134.25765491 -0.03998169 155.27448646 -0.04055383 C171.51510202 -0.04101305 187.75571662 -0.04306971 203.99633187 -0.04625446 C208.66840561 -0.04715201 213.34047935 -0.04804182 218.0125531 -0.04892933 C219.7547887 -0.04926091 219.7547887 -0.04926091 221.53222098 -0.04959918 C254.22526445 -0.05575752 286.91830759 -0.05969937 319.61135167 -0.0592559 C321.46180224 -0.05923253 321.46180224 -0.05923253 323.34963565 -0.05920869 C329.60234295 -0.05912558 335.85505025 -0.05902654 342.10775755 -0.05892398 C343.97049007 -0.05889406 343.97049007 -0.05889406 345.87085355 -0.05886354 C348.38213025 -0.0588231 350.89340694 -0.05878131 353.40468364 -0.05873815 C392.42279388 -0.05812623 431.44089541 -0.06561492 470.45900315 -0.07931072 C514.29424262 -0.09469102 558.12947636 -0.10327562 601.9647187 -0.10234749 C606.64528002 -0.10227286 611.32584135 -0.10222416 616.00640267 -0.10219318 C617.15887113 -0.10218152 618.31133959 -0.10216987 619.49873134 -0.10215786 C638.0065524 -0.10212715 656.51436588 -0.10850042 675.02218469 -0.11712544 C693.65251119 -0.12562739 712.28282667 -0.12657219 730.91315404 -0.12001612 C741.96469749 -0.11633621 753.01620733 -0.11810577 764.06774717 -0.12795846 C771.47258077 -0.13399871 778.87739026 -0.13261852 786.28222279 -0.12548796 C790.4868857 -0.12163998 794.69148403 -0.12073189 798.89614216 -0.12894531 C826.28779005 -0.17893872 853.38893629 1.1499489 880.6203801 4.31399983 C881.98699281 4.47065114 881.98699281 4.47065114 883.38121384 4.63046712 C914.38054186 8.21732042 944.99739938 13.71664613 975.3078801 21.12649983 C977.14841965 21.568326 977.14841965 21.568326 979.02614182 22.01907796 C1029.06104941 34.09579487 1077.80176729 51.60569631 1124.27907151 73.68997639 C1127.26573882 75.10651279 1130.26038397 76.50480392 1133.25709885 77.89993733 C1146.56886789 84.13318182 1159.49205855 90.93337461 1172.3078801 98.12649983 C1173.60242112 98.8472469 1173.60242112 98.8472469 1174.92311448 99.58255452 C1193.52766445 109.95195841 1211.73440808 121.08586851 1229.3078801 133.12649983 C1230.50689806 133.93669291 1231.70613222 134.74656606 1232.90553635 135.55618733 C1251.05524564 147.86257558 1268.73280086 160.96472691 1285.6438176 174.92728108 C1287.39214722 176.37055025 1289.14717621 177.80574998 1290.9094426 179.23196858 C1302.91413451 188.95258194 1314.47117678 199.15098605 1325.75905198 209.69095296 C1327.22731827 211.05183029 1328.71246811 212.39442522 1330.1985051 213.73587483 C1337.75036741 220.55582206 1344.9806272 227.69144048 1352.1828801 234.87649983 C1352.68124375 235.37227528 1353.1796074 235.86805073 1353.69307297 236.37884969 C1358.88198567 241.54649196 1363.97679819 246.75191892 1368.7429387 252.31644124 C1371.3001156 255.27414944 1374.0005041 258.09531185 1376.6828801 260.93899983 C1381.33427188 265.90968938 1385.75938061 270.98871175 1390.01491135 276.30618733 C1392.14231765 278.92286083 1394.32734826 281.47060978 1396.54323167 284.01175374 C1403.25266775 291.7183046 1409.48840738 299.7239255 1415.6203801 307.89456624 C1417.26838452 310.0742619 1418.94067586 312.23289385 1420.6203801 314.38821858 C1429.09331359 325.35078937 1436.87168656 336.73030807 1444.5578801 348.25149983 C1445.3103653 349.37692693 1445.3103653 349.37692693 1446.07805222 350.52508992 C1455.57715316 364.756338 1464.67260439 379.24346445 1473.1203801 394.12649983 C1473.85139939 395.41306477 1473.85139939 395.41306477 1474.59718674 396.72562093 C1497.17909335 436.68507997 1516.16303343 477.8176534 1531.3078801 521.12649983 C1531.73020921 522.32242757 1532.15253831 523.5183553 1532.58766526 524.75052327 C1553.930417 585.5072618 1566.9197672 649.88620264 1571.3078801 714.12649983 C1571.43815598 715.85271565 1571.43815598 715.85271565 1571.5710637 717.61380452 C1572.68181247 733.58958025 1572.55370353 749.62026592 1572.5578801 765.62649983 C1572.55832196 766.40268288 1572.55876382 767.17886594 1572.55921906 767.97856969 C1572.56681437 793.46608847 1572.06199629 818.7639868 1569.3078801 844.12649983 C1569.22066697 844.93554768 1569.13345383 845.74459553 1569.04359788 846.57815999 C1567.71160075 858.79640752 1566.11673334 870.97001317 1564.3078801 883.12649983 C1564.1422255 884.24064259 1564.1422255 884.24064259 1563.97322434 885.37729329 C1551.78752449 966.60113935 1525.22054104 1044.91229935 1474.67018479 1142.78079671 C1473.06009895 1145.55314523 1471.51552267 1148.35766529 1469.97536057 1151.16922444 C1447.44338232 1192.12254604 1418.99165062 1229.92681697 1388.74049729 1265.43948811 C1387.32188855 1267.11000386 1385.91194209 1268.78751025 1384.5031926 1270.46634358 C1371.56373467 1285.82418442 1357.48271416 1300.04490629 1343.3078801 1314.25149983 C1342.62784928 1314.93420949 1341.94781846 1315.61691914 1341.24718064 1316.32031697 C1334.44385747 1323.14394582 1327.66008884 1329.88967604 1320.3078801 1336.12649983 C1318.35312257 1337.9001358 1316.42688868 1339.70236038 1314.4953801 1341.50149983 C1309.92355554 1345.72048237 1305.23533166 1349.73797451 1300.3860051 1353.63821858 C1298.08647252 1355.49710469 1295.80874463 1357.37264759 1293.5422551 1359.27103108 C1283.52054617 1367.64717062 1273.23942698 1375.60407126 1262.7219426 1383.34769124 C1260.49468496 1384.98885216 1258.27589726 1386.64085758 1256.0578801 1388.29446858 C1236.01019953 1403.12059158 1214.85486508 1416.59638706 1193.3078801 1429.12649983 C1192.51140061 1429.59539632 1191.71492112 1430.0642928 1190.89430588 1430.54739827 C1122.95824787 1470.52884151 1048.85075259 1498.54244514 890.8703801 1529.37649983 C889.56028977 1529.52756184 888.25019944 1529.67862386 886.9004094 1529.8342635 C860.99450779 1532.69037259 835.15389385 1533.42249865 809.12062424 1533.26382893 C805.28397832 1533.24280793 801.44730222 1533.23411926 797.61061448 1533.22415608 C790.17629285 1533.20315137 782.74211151 1533.16934899 775.3078801 1533.12649983 C775.26205012 1493.14232165 775.22683425 1453.15814691 775.20574944 1413.17394769 C775.20324819 1408.44784524 775.20065953 1403.72174283 775.19801682 1398.99564046 C775.19722989 1397.58438451 775.19722989 1397.58438451 775.19642706 1396.14461833 C775.18773684 1380.93321604 775.17197452 1365.72182894 775.15357451 1350.51043564 C775.13483692 1334.8890679 775.12375523 1319.2677081 775.11970311 1303.64632958 C775.11696605 1294.01586898 775.10833761 1284.38545135 775.09204717 1274.75500399 C775.0814326 1268.14095389 775.07828955 1261.52692583 775.08087735 1254.91286784 C775.08215171 1251.10335501 775.08027078 1247.29391698 775.06946915 1243.48441762 C774.97272962 1207.58945159 774.97272962 1207.58945159 779.3703801 1192.31399983 C779.58025559 1191.57955647 779.79013108 1190.84511311 780.00636643 1190.08841389 C785.86809574 1170.74695619 796.42268145 1154.6486342 810.3078801 1140.12649983 C810.91760667 1139.45360921 811.52733323 1138.78071858 812.15553635 1138.08743733 C819.91180177 1129.82067462 829.64931596 1123.76397559 839.1828801 1117.75149983 C861.87287378 1103.39843254 882.82876153 1085.36154049 899.3078801 1064.12649983 C900.0710051 1063.19192952 900.8341301 1062.25735921 901.6203801 1061.29446858 C933.17584509 1021.90070701 952.52472619 969.4211319 952.44210118 918.79058617 C952.44445341 917.79464469 952.44680564 916.7987032 952.44922915 915.77258167 C952.45587116 912.44474755 952.45546239 909.11695291 952.45505112 905.78911275 C952.45835269 903.375313 952.46207888 900.9615138 952.4661926 898.54771531 C952.47513957 892.61576007 952.47943475 886.68381184 952.48171157 880.75185129 C952.48468255 873.64342151 952.49338491 866.53500153 952.50212585 859.42657691 C952.52293035 842.25210548 952.53343215 825.07763237 952.54225546 807.90315129 C952.54646604 799.77696683 952.55168734 791.6507831 952.55693999 783.52459926 C952.57482309 755.70024599 952.58982021 727.87589251 952.59726018 700.05153435 C952.59773493 698.30614628 952.59821082 696.56075821 952.59868784 694.81537014 C952.59892421 693.94983699 952.59916059 693.08430384 952.59940413 692.19254242 C952.6006053 687.80749111 952.60182076 683.42243981 952.60304612 679.0373885 C952.60340634 677.73206486 952.60340634 677.73206486 952.60377385 676.40037104 C952.61167105 648.17051049 952.6351152 619.9406919 952.66760206 591.71084968 C952.701899 561.85358117 952.72161096 531.99633723 952.72490442 502.1390487 C952.72532195 498.86177855 952.72580151 495.58450841 952.7263276 492.30723828 C952.72645079 491.50030191 952.72657398 490.69336553 952.72670091 489.86197654 C952.72903254 476.87862699 952.74468978 463.89532625 952.76516944 450.91199409 C952.78542354 437.86483251 952.79090661 424.81772954 952.78139881 411.77055515 C952.77618304 404.02093473 952.78206503 396.27150949 952.80393348 388.52191716 C952.81903162 382.73394564 952.81320115 376.94614537 952.79926296 371.1581779 C952.79687772 368.81778182 952.80125767 366.477367 952.81309161 364.13699961 C952.82819055 360.95375122 952.81855106 357.77147921 952.80286473 354.58825463 C952.81308694 353.68146817 952.82330914 352.77468171 952.83384112 351.84041688 C952.72646798 341.84443757 949.34791204 332.41491117 942.40553635 325.13040608 C934.09528737 317.17067727 925.08231207 314.02698178 913.62892503 313.98123616 C912.53726533 313.97485631 911.44560563 313.96847646 910.32086533 313.96190327 C909.15513489 313.96079045 907.98940446 313.95967763 906.78834885 313.95853108 C905.57520509 313.95520268 904.36206132 313.95187428 903.11215562 313.94844502 C900.54938989 313.94339018 897.98661761 313.94103625 895.4238469 313.9411971 C891.51984557 313.93901352 887.61612825 313.92085004 883.71217698 313.90189046 C881.21673523 313.8989556 878.72129215 313.89697142 876.22584885 313.89603108 C875.06619111 313.88884557 873.90653336 313.88166005 872.71173447 313.87425679 C860.77895909 313.90759817 850.54530364 315.90938976 841.2297551 323.91165608 C832.82769734 332.80687811 830.14335812 343.23244892 830.18318146 355.17701787 C830.18183723 355.9744806 830.18049299 356.77194333 830.17910802 357.5935716 C830.17579431 360.27031828 830.17958778 362.94700779 830.18330735 365.62375325 C830.18232108 367.5604611 830.18088393 369.49716876 830.17903417 371.43387598 C830.17597417 375.6471204 830.17608349 379.86034903 830.17859048 384.0735938 C830.18264913 390.92870693 830.17988159 397.78380771 830.17624253 404.63892049 C830.17215146 413.30114976 830.16991289 421.96337626 830.16982654 430.62560651 C830.16962385 447.64652639 830.15716704 464.66741777 830.14021653 481.68832844 C830.13760124 484.36749928 830.13501105 487.04667013 830.13242 489.72584099 C830.12848385 493.78623751 830.12453727 497.84663402 830.12055878 501.90703051 C830.10558805 517.21651392 830.09196914 532.52599826 830.07985276 547.83548421 C830.0792946 548.53505536 830.07873644 549.23462652 830.07816136 549.9553968 C830.0601618 572.64125544 830.05583758 595.327095 830.05755178 618.01295983 C830.05926864 642.00338876 830.04230261 665.99374476 830.0066852 689.98414797 C829.9860248 704.34891995 829.98070573 718.71353288 829.99501351 733.07831332 C830.0034679 742.92171455 829.99375319 752.76499202 829.969704 762.60836712 C829.95638754 768.28859466 829.95122401 773.96852541 829.96782464 779.64875096 C829.98285791 784.85015965 829.97486229 790.05100886 829.9486551 795.25236854 C829.94323678 797.13256512 829.94623646 799.01280906 829.95857206 800.89297298 C830.02817527 812.34360248 829.66092377 820.97049961 821.8078801 830.00149983 C820.9828801 830.70274983 820.1578801 831.40399983 819.3078801 832.12649983 C818.2250676 833.17837483 818.2250676 833.17837483 817.1203801 834.25149983 C810.12943604 838.91212921 802.03096754 840.22709357 793.8703801 838.65774983 C785.40624019 836.49010424 779.64194109 832.65632761 774.9328801 825.25149983 C770.94747405 818.50525382 770.00659793 811.55828931 770.05734032 803.84829682 C770.05454265 803.05051437 770.05174497 802.25273192 770.04886252 801.43077424 C770.04191921 798.76491465 770.04915324 796.09928654 770.05632371 793.43343037 C770.05418444 791.49983304 770.05115849 789.56623651 770.04732329 787.63264179 C770.03928687 782.32459167 770.04358837 777.01661206 770.04984206 771.7085622 C770.05437622 765.98178047 770.04733545 760.25501217 770.04153794 754.52823323 C770.03290493 744.60548041 770.03109682 734.68274541 770.03348511 724.75998944 C770.03658219 710.40137085 770.02494587 696.0427917 770.00893532 681.68418304 C770.0014808 674.99112918 769.9945649 668.29807477 769.98775643 661.60502023 C769.98673044 660.6000214 769.98673044 660.6000214 769.98568372 659.57471957 C769.96951137 643.63275377 769.95867229 627.69078548 769.94948167 611.74881428 C769.94907563 611.0514345 769.9486696 610.35405472 769.94825126 609.63554221 C769.93882393 593.36572348 769.93195733 577.09590613 769.92952317 560.82608479 C769.92941661 560.12635148 769.92931004 559.42661816 769.92920025 558.7056808 C769.92866708 555.17724971 769.92815234 551.64881862 769.92763887 548.12038753 C769.92753667 547.42303161 769.92743446 546.72567568 769.92732915 546.00718775 C769.92712359 544.59964259 769.92692103 543.19209742 769.92672149 541.78455225 C769.92324354 517.8605342 769.90455714 493.9365628 769.87192637 470.01256657 C769.85300945 455.6906746 769.84705176 441.36889228 769.85774355 427.04699127 C769.86406185 417.23305466 769.8560243 407.41919668 769.83668943 397.60527732 C769.82600556 391.94317489 769.82185938 386.28126342 769.83516091 380.61916226 C769.84722141 375.43327444 769.84084466 370.24774446 769.81996892 365.06188766 C769.81567052 363.18846061 769.8180919 361.31500321 769.8280101 359.44159748 C769.89284178 346.23432466 769.15155938 334.07931081 759.3078801 324.12649983 C750.87490017 317.24243458 741.65260089 314.04548967 730.76832932 313.96536702 C729.17539551 313.9509557 729.17539551 313.9509557 727.55028123 313.93625325 C726.41583573 313.93200337 725.28139024 313.92775349 724.1125676 313.92337483 C722.9287349 313.91767476 721.7449022 313.91197469 720.52519578 313.90610188 C718.02210219 313.89667047 715.51899629 313.8901253 713.01588792 313.88626546 C709.2171603 313.87658717 705.41898028 313.84555622 701.6203801 313.81399983 C699.18027913 313.80746623 696.7401743 313.80221716 694.3000676 313.79837483 C692.61661744 313.77985463 692.61661744 313.77985463 690.89915818 313.76096028 C679.528063 313.79253282 668.28811983 315.68572978 659.3078801 323.12649983 C648.4425723 335.06538149 647.86899697 346.57895152 647.93606919 361.88840169 C647.93349311 363.8173129 647.92959076 365.74622272 647.9244796 367.67512888 C647.91421683 372.96569164 647.92250168 378.25608733 647.93377644 383.54664201 C647.94263513 389.25640531 647.93412508 394.9661451 647.92757004 400.67590779 C647.91841542 410.56809184 647.91974096 420.4602295 647.92775506 430.35241383 C647.93898852 444.6689779 647.92994374 458.9854759 647.91519325 473.30203423 C647.90836744 479.97714062 647.90235867 486.65224768 647.89661664 493.32735509 C647.89575153 494.32964145 647.89575153 494.32964145 647.89486894 495.35217602 C647.88134793 511.24895407 647.8767588 527.14573236 647.87404221 543.04251546 C647.87391907 543.73785599 647.87379592 544.43319653 647.87366904 545.14960799 C647.87095465 560.66531192 647.87003949 576.18101539 647.8710927 591.69671952 C647.8715175 598.02747962 647.87182501 604.35823972 647.87208909 610.68899983 C647.87213825 611.73053174 647.87213825 611.73053174 647.87218841 612.7931047 C647.8728745 628.65489971 647.87025441 644.51668273 647.85593671 660.37847203 C647.85533504 661.04569935 647.85473336 661.71292667 647.85411346 662.400373 C647.84741243 669.72090289 647.83970949 677.0414313 647.83125603 684.3619594 C647.81545583 698.64015751 647.8131879 712.91823412 647.82839005 727.19643351 C647.8378592 736.98233727 647.83309324 746.76816782 647.81717623 756.55406299 C647.80848578 762.19819687 647.80633252 767.84213618 647.82170266 773.48626012 C647.83567388 778.65802002 647.83113182 783.8294283 647.81218164 789.00116929 C647.80858289 790.86720227 647.81167889 792.73326338 647.82233132 794.59926942 C647.89824612 808.86410029 647.25682675 821.38217231 636.6828801 832.09524983 C630.39988473 837.4688643 623.79881685 839.50424946 615.5422551 839.33353108 C607.01929401 838.54381616 600.25291788 835.25239548 594.3078801 829.12649983 C587.21720747 819.33651821 587.46164101 809.51753163 587.56184739 797.99037617 C587.55652581 796.05744383 587.54856707 794.12451727 587.53821415 792.19160533 C587.51742786 786.90378216 587.5337354 781.61663453 587.55626148 776.3288427 C587.57400113 770.61710295 587.55699737 764.905453 587.54419297 759.1937148 C587.52666334 749.30316319 587.53076302 739.41281197 587.54943436 729.52226514 C587.57624449 715.2103569 587.56801234 700.89863339 587.55094579 686.58671797 C587.52399865 663.34922382 587.52221965 640.11180437 587.53786057 616.87430257 C587.54161783 611.24842778 587.54534612 605.62255297 587.54890794 599.99667805 C587.5493501 599.29885118 587.54979225 598.6010243 587.55024781 597.88205115 C587.56029032 581.67080846 587.55978662 565.45957084 587.55641526 549.248326 C587.55627649 548.55379985 587.55613772 547.85927369 587.55599474 547.14370129 C587.55277023 531.28089493 587.54658551 515.41809162 587.53669709 499.55528802 C587.5360796 498.55473206 587.5360796 498.55473206 587.53544964 497.53396285 C587.53174183 491.53298478 587.52798652 485.53200676 587.52380362 479.53102899 C587.51300526 463.93822436 587.51089138 448.34547615 587.52449664 432.75267274 C587.5328254 422.97290975 587.5347395 413.19316034 587.53163388 403.41339432 C587.53017351 397.77156057 587.5321352 392.12977856 587.54291695 386.48795384 C587.55278125 381.32083374 587.55348396 376.15379546 587.54702201 370.98667074 C587.54633866 369.12008764 587.54904323 367.25349949 587.55552861 365.38692754 C587.60531249 350.26286307 586.89029736 338.71802212 578.1203801 325.93899983 C568.95763426 316.77625399 557.50229104 313.82044315 544.83133286 313.70966023 C543.13556359 313.71876927 543.13556359 313.71876927 541.40553635 313.72806233 C540.20658234 313.72519215 539.00762833 313.72232198 537.77234238 313.71936482 C535.25203827 313.71733515 532.731718 313.72278761 530.21144456 313.73538655 C526.38450215 313.75144059 522.55861805 313.73550638 518.73170823 313.71634358 C516.2688153 313.71832648 513.80592303 313.72217112 511.34303635 313.72806233 C510.21454774 313.72198964 509.08605912 313.71591695 507.92337388 313.70966023 C495.29893398 313.8197157 484.69425293 316.17979205 475.3391301 324.97806233 C469.2850171 331.41697065 465.18661932 339.37879508 465.1802296 348.33915222 C465.17721364 349.17885141 465.17419767 350.0185506 465.1710903 350.88369521 C465.17285978 351.80297871 465.17462925 352.72226221 465.17645234 353.66940278 C465.1743997 354.65253848 465.17234707 355.63567417 465.17023224 356.64860186 C465.16454215 359.96914303 465.16602198 363.28964298 465.16743821 366.61018819 C465.16485568 369.00470699 465.16184283 371.39922536 465.15843481 373.79374313 C465.15119676 379.70175875 465.14866149 385.60976599 465.14810575 391.517785 C465.14719251 398.59339893 465.14052586 405.66900448 465.13375893 412.74461481 C465.11768713 429.85391363 465.11179297 446.96321157 465.10701018 464.07251659 C465.10467402 472.17201024 465.10107119 480.27150318 465.0973148 488.37099628 C465.08447425 516.11138174 465.07375866 543.8517668 465.0703122 571.59215516 C465.07009057 573.33423135 465.06986879 575.07630755 465.06964685 576.81838374 C465.06942621 578.56463702 465.06920573 580.31089029 465.0689854 582.05714357 C465.06854286 585.56032417 465.06809574 589.06350478 465.06764573 592.56668538 C465.06753634 593.43527299 465.06742695 594.3038606 465.06731424 595.19876905 C465.06368877 623.32236098 465.04779063 651.44592705 465.02445536 679.56950909 C464.99981531 709.32024848 464.98613729 739.0709731 464.98494428 768.82172298 C464.98477284 772.09315894 464.98455742 775.3645949 464.98430985 778.63603085 C464.9842262 779.84426331 464.9842262 779.84426331 464.98414086 781.0769045 C464.98299359 794.00015905 464.97199862 806.92338695 464.9574228 819.84663252 C464.94299905 832.86115646 464.93985366 845.87564652 464.94786277 858.89017626 C464.95229259 866.60568428 464.94856585 874.32108235 464.93262427 882.03657574 C464.92161136 887.82427754 464.92659876 893.61188319 464.93739614 899.39958135 C464.93933814 901.72156162 464.93634515 904.04355321 464.92755178 906.36551764 C464.78608991 946.28939423 472.67257585 984.2044153 490.3078801 1020.12649983 C490.67526292 1020.87512288 491.04264573 1021.62374593 491.42116135 1022.39505452 C506.51135413 1052.74873733 529.30090226 1081.54101808 556.3078801 1102.12649983 C556.83897385 1102.53400471 557.3700676 1102.9415096 557.9172551 1103.36136311 C565.5663939 1109.2012876 573.45303701 1114.56479256 581.5578801 1119.75149983 C588.90362866 1124.47155741 595.84744686 1129.22039393 602.3078801 1135.12649983 C602.78628342 1135.56252522 603.26468674 1135.99855061 603.75758713 1136.44778889 C626.31509255 1157.26231297 639.78309914 1185.5004176 642.3078801 1216.12649983 C642.44458921 1219.82661461 642.45032021 1223.52276333 642.4465453 1227.2251212 C642.44938752 1228.31624386 642.45222974 1229.40736652 642.45515808 1230.53155351 C642.46348551 1234.19156689 642.46477203 1237.85154851 642.46609849 1241.51157063 C642.47066639 1244.16451687 642.47562574 1246.81745976 642.48106205 1249.47040409 C642.49210599 1255.24579094 642.49948593 1261.02117344 642.50446099 1266.79656857 C642.51188556 1275.39786936 642.52498133 1283.99915505 642.53920674 1292.60044694 C642.56307607 1307.13504911 642.58227168 1321.66965403 642.59880608 1336.20426625 C642.61537214 1350.76072215 642.63388791 1365.31717342 642.65493935 1379.87362355 C642.65691576 1381.24209205 642.65691576 1381.24209205 642.6589321 1382.63820637 C642.66429273 1386.34588016 642.66966691 1390.05355394 642.67505899 1393.76122769 C642.724407 1427.69792151 642.76895275 1461.63461992 642.81056565 1495.57132405 C642.84793211 1526.04332754 642.88778574 1556.51532592 642.93143557 1586.98732109 C642.93556499 1589.87066499 642.93968574 1592.7540089 642.94380356 1595.63735282 C642.95475431 1603.30502409 642.96571509 1610.97269534 642.97668461 1618.64036658 C643.04977031 1669.73790927 643.12082055 1720.83544762 643.17131394 1771.93301839 C643.17316154 1773.79443328 643.17500973 1775.65584817 643.1768585 1777.51726305 C643.1932525 1794.0467433 643.20939597 1810.57622378 643.22481054 1827.10570496 C643.26346374 1868.43981225 643.31884782 1909.77379757 643.41273355 1951.10781854 C643.42002758 1954.32445031 643.42730182 1957.54108212 643.43455571 1960.75771397 C643.4372297 1961.94210056 643.4372297 1961.94210056 643.4399577 1963.15041415 C643.46599924 1974.74667884 643.48798029 1986.34294508 643.50605649 1997.9392249 C643.50721404 1998.68034288 643.50837159 1999.42146086 643.50956422 2000.18503696 C643.52092512 2007.50812393 643.53167121 2014.83121159 643.54157477 2022.15430068 C643.54640037 2025.70677865 643.55140136 2029.25925635 643.55652016 2032.8117339 C643.55751962 2033.50692506 643.55851908 2034.20211621 643.55954883 2034.91837377 C643.57576699 2045.91260854 643.60563032 2056.90676317 643.64132106 2067.90095023 C643.67598205 2078.65157155 643.69644019 2089.40213951 643.70243488 2100.15281546 C643.70607541 2105.87210396 643.71619871 2111.59118329 643.7441029 2117.31040925 C643.76927822 2122.48535412 643.77623223 2127.65998209 643.7682982 2132.83497921 C643.76870891 2134.6949065 643.77590574 2136.55484735 643.79059435 2138.41471669 C643.80952436 2140.93252527 643.80376559 2143.44912575 643.79184216 2145.96695012 C643.80319502 2146.68397122 643.81454788 2147.40099232 643.82624476 2148.13974133 C643.75214221 2154.22946857 641.78791024 2159.61446931 637.49147385 2163.96634358 C636.91526292 2164.32857014 636.33905198 2164.69079671 635.7453801 2165.06399983 C635.16659104 2165.44427327 634.58780198 2165.82454671 633.99147385 2166.21634358 C630.89166719 2167.89210913 628.3301757 2168.25206836 624.8792634 2168.255301 C623.96578482 2168.25857319 623.05230623 2168.26184539 622.11114648 2168.26521674 C621.10415929 2168.26373311 620.0971721 2168.26224949 619.05967015 2168.26072091 C617.98817647 2168.26307314 616.9166828 2168.26542537 615.81271961 2168.26784888 C612.18575568 2168.27455965 608.5588274 2168.27408003 604.93185776 2168.27367085 C602.31984615 2168.27696818 599.70783505 2168.28069347 597.0958246 2168.28481233 C590.64652973 2168.29415 584.19724173 2168.29806234 577.74794095 2168.3003313 C570.02610134 2168.30329032 562.30427087 2168.31198594 554.58243604 2168.32074558 C535.91693628 2168.34160287 517.25143492 2168.35206163 498.58592622 2168.36087519 C489.75879213 2168.36507969 480.93165873 2168.37030193 472.10452523 2168.37555971 C441.89834433 2168.39345064 411.69216324 2168.4084476 381.48597783 2168.41587991 C379.589162 2168.41635467 377.69234616 2168.41683055 375.79553033 2168.41730757 C374.38453203 2168.41766213 374.38453203 2168.41766213 372.94502872 2168.41802386 C368.17901629 2168.41922508 363.41300386 2168.42044052 358.64699143 2168.42166585 C357.7011559 2168.421906 356.75532036 2168.42214615 355.78082314 2168.42239357 C325.10662484 2168.43028853 294.43246518 2168.45372403 263.75828375 2168.48622179 C231.34067798 2168.52050403 198.92309483 2168.54022954 166.50547063 2168.54352415 C162.94813868 2168.5439417 159.39080675 2168.54442126 155.83347481 2168.54494733 C154.9575363 2168.54507052 154.08159778 2168.54519371 153.17911566 2168.54532063 C139.07062246 2168.54765462 124.96217407 2168.56332562 110.85369686 2168.58378917 C96.67768515 2168.60402479 82.50172737 2168.60953521 68.3257039 2168.60001854 C59.90007196 2168.5947948 51.47461934 2168.6007221 43.04901314 2168.62255321 C36.76284569 2168.63761234 30.476861 2168.63184771 24.19069465 2168.61788269 C21.64354946 2168.61549094 19.0963872 2168.61991055 16.54926822 2168.63171134 C13.09430002 2168.64673075 9.64024075 2168.63722563 6.18529576 2168.62148446 C5.1900144 2168.63170667 4.19473304 2168.64192887 3.16929165 2168.65246084 C-3.58267134 2168.5850474 -9.22378507 2167.42541967 -14.25094835 2162.64381422 C-18.14354567 2158.18330201 -18.8170953 2154.88103094 -18.81820907 2149.12040408 C-18.82221363 2147.21962131 -18.82221363 2147.21962131 -18.8262991 2145.28043889 C-18.82420997 2143.86237301 -18.82203034 2142.44430727 -18.8197704 2141.02624166 C-18.82101231 2139.52063297 -18.8226925 2138.01502458 -18.82477276 2136.50941682 C-18.82924886 2132.33587468 -18.82743458 2128.16235456 -18.82467097 2123.98881179 C-18.82275727 2119.44506799 -18.82662499 2114.9013286 -18.82976776 2110.357586 C-18.8344946 2102.35128499 -18.83546256 2094.34499016 -18.83403942 2086.33868798 C-18.83192455 2074.35288833 -18.83552273 2062.36709512 -18.84025419 2050.38129647 C-18.84814146 2029.95803101 -18.85121693 2009.5347673 -18.85170013 1989.11150044 C-18.85220189 1968.40268114 -18.85484235 1947.69386379 -18.86010772 1926.98504514 C-18.86043785 1925.67906866 -18.86076799 1924.37309219 -18.86110812 1923.02754067 C-18.86245806 1917.70885943 -18.86381949 1912.39017819 -18.86520023 1907.07149696 C-18.88037409 1848.53791237 -18.88714413 1790.00432826 -18.8916222 1731.47074201 C-18.89167888 1730.7301857 -18.89173557 1729.98962938 -18.89179398 1729.22663197 C-18.8920805 1725.48079753 -18.89236553 1721.73496309 -18.8926481 1717.98912864 C-18.89502233 1686.61817498 -18.89873182 1655.24722154 -18.9026852 1623.87626804 C-18.90457773 1608.85740083 -18.90640623 1593.83853361 -18.9082194 1578.81966639 C-18.90830959 1578.07273575 -18.90839978 1577.32580511 -18.9084927 1576.55624021 C-18.91282905 1540.60653499 -18.91675736 1504.65682973 -18.92021972 1468.70712441 C-18.92033053 1467.55679151 -18.92033053 1467.55679151 -18.92044358 1466.38321955 C-18.92513903 1417.50478571 -18.92796176 1368.62635193 -18.9296065 1319.74791789 C-18.92974208 1315.74001304 -18.92988111 1311.73210819 -18.93002004 1307.72420334 C-18.93024252 1301.29847043 -18.93046388 1294.87273753 -18.93068392 1288.44700462 C-18.93071119 1287.65073965 -18.93073846 1286.85447467 -18.93076656 1286.03408046 C-18.93082167 1284.42476006 -18.93087678 1282.81543966 -18.93093189 1281.20611926 C-18.93131851 1269.91702917 -18.93170645 1258.62793908 -18.93210102 1247.33884899 C-18.93224213 1243.29935449 -18.9323822 1239.25985999 -18.93251992 1235.2203655 C-18.93512447 1158.91805933 -18.94045689 1082.6157552 -18.95640212 1006.31345052 C-18.95656992 1005.51007462 -18.95673771 1004.70669873 -18.95691059 1003.87897812 C-18.96216132 978.77781017 -18.96773566 953.6766423 -18.9733699 928.57547444 C-18.97915073 902.82038662 -18.98488122 877.06529878 -18.99032623 851.31021088 C-18.99057794 850.12073676 -18.99057794 850.12073676 -18.99083473 848.90723285 C-19.00132513 799.25690694 -19.00818874 749.60658159 -19.01119262 699.95625466 C-19.01123943 699.18959794 -19.01128624 698.42294122 -19.01133447 697.63305248 C-19.01338497 663.96581339 -19.01462919 630.29857432 -19.01498053 596.63133516 C-19.0151238 583.0875489 -19.01536247 569.54376263 -19.01564458 555.99997637 C-19.01569012 553.75429781 -19.01573177 551.50861926 -19.0157727 549.26294071 C-19.01641908 514.89802084 -19.0193825 480.53310329 -19.02923328 446.1681847 C-19.02944565 445.4266558 -19.02965802 444.68512691 -19.02987683 443.92112744 C-19.03330578 431.99204473 -19.03691869 420.06296207 -19.04055323 408.13387942 C-19.05086226 374.28156781 -19.05964938 340.42925905 -19.05770856 306.5769456 C-19.05765045 305.54727888 -19.05765045 305.54727888 -19.05759117 304.49681082 C-19.05671474 289.52320876 -19.05500292 274.54960691 -19.05247155 259.57600504 C-19.05147475 253.60472261 -19.05058906 247.63344017 -19.04973632 241.66215771 C-19.04954635 240.36048913 -19.04935639 239.05882055 -19.04916066 237.71770746 C-19.0464211 217.06094232 -19.05378786 196.4041935 -19.06530969 175.74743191 C-19.07641569 155.4626274 -19.0769168 135.17784608 -19.0659395 114.89304124 C-19.05981733 102.98308748 -19.06200579 91.07320345 -19.07619148 79.16325618 C-19.08478336 71.26883205 -19.08263705 63.37445961 -19.07149276 55.48003875 C-19.06546967 50.9949777 -19.06424531 46.51005403 -19.07617763 42.02500174 C-19.08690526 37.9603458 -19.08397474 33.89594349 -19.06988496 29.8312999 C-19.0672481 28.36915675 -19.06968125 26.90699382 -19.07769821 25.44487027 C-19.08782673 23.46594501 -19.07772952 21.48694701 -19.06660606 19.50802709 C-19.06675613 17.86379189 -19.06675613 17.86379189 -19.06690923 16.18633981 C-18.42849275 10.97420566 -16.24097143 7.10813123 -12.1921199 3.81399983 C-11.6043074 3.32286702 -11.0164949 2.83173421 -10.4108699 2.32571858 C-7.02737139 -0.0350406 -3.99001985 0.001124 0 0 Z " fill="#B77333" transform="translate(771.6921198964119,412.8735001683235)"/>
<path d="M0 0 C384.12 -0.1546875 384.12 -0.1546875 776 -0.3125 C857.0046875 -0.35802002 938.009375 -0.40354004 1021.46875 -0.45043945 C1120.01171875 -0.47302246 1120.01171875 -0.47302246 1166.07177734 -0.47721863 C1199.46617265 -0.48205129 1232.86051612 -0.5019496 1266.25489729 -0.53062727 C1301.43994693 -0.56075455 1336.6249663 -0.57481778 1371.81002911 -0.56781117 C1376.71063808 -0.56683991 1381.61124706 -0.56604708 1386.51185608 -0.56536138 C1387.47234033 -0.56522048 1388.43282458 -0.56507958 1389.42241442 -0.56493441 C1404.52333578 -0.56317525 1419.62419156 -0.57800258 1434.72509493 -0.60009888 C1449.41280847 -0.62125262 1464.10043629 -0.6247825 1478.78815782 -0.6091767 C1487.40663253 -0.60055968 1496.0248364 -0.60580668 1504.64327984 -0.63108187 C1510.37081645 -0.64652063 1516.09815892 -0.64395324 1521.82568938 -0.62650426 C1525.07693365 -0.6171114 1528.32754474 -0.61834224 1531.57876915 -0.63617641 C1535.06917581 -0.65412002 1538.55816905 -0.64148193 1542.04853058 -0.62099248 C1543.05227323 -0.63353686 1544.05601588 -0.64608125 1545.09017497 -0.65900576 C1551.57285541 -0.57725604 1556.02551214 0.72661715 1561 5 C1565.09861961 10.25464052 1566.12370371 13.96401458 1566.14717102 20.53300476 C1566.15084771 21.1996261 1566.1545244 21.86624743 1566.1583125 22.55306941 C1566.16934384 24.7914909 1566.17319225 27.02986595 1566.17700195 29.26831055 C1566.18326708 30.87151741 1566.18991393 32.47472282 1566.19691467 34.07792664 C1566.21795363 39.34751372 1566.22831768 44.6171011 1566.23828125 49.88671875 C1566.24232903 51.70147021 1566.24644595 53.51622152 1566.25063133 55.33097267 C1566.26968354 63.8579336 1566.28391387 72.38488586 1566.2922433 80.91186398 C1566.30201282 90.75039366 1566.32832472 100.58869817 1566.36874419 110.42714852 C1566.39892175 118.03406708 1566.41371378 125.64092115 1566.41702431 133.2478984 C1566.41937316 137.78994187 1566.42831185 142.3317448 1566.45348549 146.87372398 C1566.47679962 151.14932704 1566.48098611 155.42453177 1566.47072411 159.70018196 C1566.47022943 161.26585593 1566.47652989 162.83154972 1566.49028015 164.39716339 C1566.55712301 172.46192291 1566.61160268 179.09574672 1562 186 C1560.18359375 187.83984375 1560.18359375 187.83984375 1558.4375 188.9375 C1557.85871094 189.31777344 1557.27992187 189.69804687 1556.68359375 190.08984375 C1552.24406576 192.489867 1547.80861608 192.13802273 1542.91345674 192.1241985 C1541.49219416 192.12611563 1541.49219416 192.12611563 1540.04221922 192.1280715 C1536.83041288 192.13116231 1533.61865465 192.12705432 1530.40684986 192.12304783 C1528.08482636 192.12378669 1525.76280296 192.12496443 1523.44077988 192.12654402 C1517.68670474 192.12930474 1511.9326441 192.12737249 1506.17856989 192.12354068 C1499.25655638 192.11919656 1492.33454724 192.1206714 1485.412533 192.12235395 C1472.4652938 192.12533225 1459.5180591 192.12353922 1446.57082045 192.11921513 C1433.30115827 192.11480367 1420.03149839 192.11262731 1406.76183546 192.11307228 C1405.49659849 192.11311274 1405.49659849 192.11311274 1404.20580117 192.11315403 C1399.90453923 192.1133016 1395.60327729 192.11348463 1391.30201535 192.11368043 C1360.43321014 192.11501514 1329.56440698 192.11162941 1298.69560242 192.10557556 C1256.95669463 192.09740729 1215.21779126 192.09547348 1173.47888184 192.09460449 C1073.09008746 192.08934756 972.70129369 192.07538654 872.3125 192.0625 C536.0528125 192.0315625 536.0528125 192.0315625 193 192 C193 1024.92 193 1857.84 193 2716 C276.82 2716 360.64 2716 447 2716 C453.8 2719.4 453.8 2719.4 456.25 2722.375 C456.72953125 2722.93960938 457.2090625 2723.50421875 457.703125 2724.0859375 C460.70574202 2728.51751081 461.25236209 2732.39503706 461.26742554 2737.69085693 C461.27422221 2738.68004321 461.27422221 2738.68004321 461.28115618 2739.68921304 C461.29378221 2741.89151342 461.292181 2744.09356594 461.29052734 2746.29589844 C461.29651382 2747.87807533 461.30331964 2749.4602493 461.31088257 2751.04241943 C461.32853996 2755.33599479 461.3332379 2759.62949041 461.33451414 2763.92309856 C461.33593671 2766.60788233 461.34020836 2769.29264588 461.34550858 2771.97742462 C461.36400961 2781.35052271 461.3721793 2790.72356394 461.37060547 2800.09667969 C461.36940479 2808.82232829 461.39049245 2817.54772924 461.4220928 2826.27331519 C461.44828278 2833.77329408 461.45897159 2841.27319224 461.45769465 2848.77321649 C461.45718572 2853.24873833 461.4628305 2857.72404016 461.48405075 2862.1995163 C461.50347852 2866.41196993 461.50352683 2870.62399477 461.48901749 2874.83646393 C461.48693374 2876.3775241 461.49160435 2877.91861143 461.5037384 2879.45962524 C461.62152455 2895.46230274 461.62152455 2895.46230274 457 2902 C346.1579479 3006.51547221 152.34646187 2908 0 2908 C0 1948.36 0 988.72 0 0 Z " fill="#B77333" transform="translate(65,45)"/>
<path d="M0 0 C0 959.64 0 1919.28 0 2908 C-255.915 2908.0825 -511.83 2908.165 -775.5 2908.25 C-896.9287207 2908.30462402 -896.9287207 2908.30462402 -1020.81054688 2908.36035156 C-1119.29003906 2908.37841797 -1119.29003906 2908.37841797 -1165.32043457 2908.3817749 C-1198.69330049 2908.38564103 -1232.06613321 2908.40155968 -1265.43899008 2908.42450182 C-1300.60136872 2908.44860365 -1335.76372798 2908.45985422 -1370.92611505 2908.45424894 C-1375.82356929 2908.45347193 -1380.72102355 2908.45283766 -1385.61847782 2908.4522891 C-1386.57834375 2908.45217638 -1387.53820968 2908.45206366 -1388.52716245 2908.45194753 C-1403.61833803 2908.45054021 -1418.7094716 2908.46240206 -1433.80063565 2908.4800791 C-1448.47887914 2908.49700211 -1463.15706772 2908.49982597 -1477.83531633 2908.48734136 C-1486.44819781 2908.48044778 -1495.06090582 2908.48464536 -1503.67376728 2908.50486549 C-1509.39759345 2908.51721649 -1515.12129529 2908.5151625 -1520.84511753 2908.50120341 C-1524.09418681 2908.49368933 -1527.3428506 2908.49467404 -1530.59190717 2908.50894113 C-1534.07989703 2908.5232954 -1537.56698165 2908.51318473 -1541.05494261 2908.49679399 C-1542.05802601 2908.50682949 -1543.06110941 2908.516865 -1544.09458928 2908.52720461 C-1550.22734194 2908.46529598 -1554.87824899 2907.50188171 -1560 2904 C-1561.83984375 2901.96484375 -1561.83984375 2901.96484375 -1562.9375 2899.9375 C-1563.31777344 2899.26589844 -1563.69804688 2898.59429688 -1564.08984375 2897.90234375 C-1565.9632466 2893.98669059 -1566.1295583 2890.87669493 -1566.14044189 2886.58088684 C-1566.14341302 2885.92651616 -1566.14638414 2885.27214548 -1566.1494453 2884.59794539 C-1566.15813024 2882.40097739 -1566.15964038 2880.20406389 -1566.16113281 2878.00708008 C-1566.16576123 2876.4334298 -1566.17078592 2874.85978065 -1566.17617798 2873.28613281 C-1566.18930394 2869.00698459 -1566.19574761 2864.72785205 -1566.20018864 2860.44868684 C-1566.20311976 2857.77431353 -1566.2072247 2855.0999445 -1566.21169281 2852.42557335 C-1566.22536983 2844.05558696 -1566.23503482 2835.68561036 -1566.2388947 2827.31561357 C-1566.24337256 2817.65880541 -1566.26090692 2808.00213899 -1566.2898953 2798.34537393 C-1566.31153008 2790.87858059 -1566.32159998 2783.41182708 -1566.32293582 2775.94500273 C-1566.32398279 2771.48684249 -1566.32986738 2767.02881545 -1566.34775543 2762.57068825 C-1566.36426663 2758.37392609 -1566.36637688 2754.17739682 -1566.35761642 2749.98061371 C-1566.35684761 2748.44397291 -1566.36116819 2746.90731943 -1566.37107468 2745.37071037 C-1566.47484497 2728.26533103 -1566.47484497 2728.26533103 -1561.3515625 2721.9765625 C-1560.78179688 2721.53054687 -1560.21203125 2721.08453125 -1559.625 2720.625 C-1559.06039063 2720.16351562 -1558.49578125 2719.70203125 -1557.9140625 2719.2265625 C-1552.55810127 2715.7943751 -1547.84385728 2715.71650616 -1541.66505975 2715.75160301 C-1540.71499518 2715.74904682 -1539.76493061 2715.74649064 -1538.78607621 2715.74385699 C-1535.57756875 2715.73769359 -1532.36925534 2715.74587958 -1529.1607542 2715.75390434 C-1526.83639938 2715.75242609 -1524.51204498 2715.75007001 -1522.18769183 2715.74691195 C-1516.43560345 2715.74139772 -1510.68357318 2715.74524746 -1504.93148852 2715.75291863 C-1498.01026253 2715.76161682 -1491.089054 2715.75865519 -1484.16782511 2715.7552921 C-1471.22267338 2715.7493392 -1458.27753968 2715.75291717 -1445.33239019 2715.76156974 C-1432.06682171 2715.77039581 -1418.80126241 2715.77474504 -1405.5356909 2715.77385545 C-1404.69214564 2715.77380149 -1403.84860037 2715.77374754 -1402.97949312 2715.77369195 C-1398.67788024 2715.77339679 -1394.37626736 2715.77303073 -1390.07465449 2715.77263914 C-1359.21124985 2715.76997042 -1328.34785337 2715.77673855 -1297.48445129 2715.78884888 C-1255.75285478 2715.80518896 -1214.02127593 2715.80905327 -1172.28967285 2715.81079102 C-1071.92228017 2715.82130374 -971.55488992 2715.84922579 -871.1875 2715.875 C-647.055625 2715.91625 -422.92375 2715.9575 -192 2716 C-192 1883.08 -192 1050.16 -192 192 C-275.82 192 -359.64 192 -446 192 C-457.23629301 186.3818535 -457.23629301 186.3818535 -460.11651897 179.22605705 C-461.06621342 175.75821974 -461.25436088 172.85032402 -461.26069641 169.25808716 C-461.26452196 168.60523676 -461.26834751 167.95238636 -461.27228898 167.27975261 C-461.28255604 165.10585193 -461.27863894 162.93221849 -461.2746582 160.75830078 C-461.2790082 159.19405881 -461.2841923 157.62981897 -461.29014587 156.06558228 C-461.30351685 151.82584213 -461.30411662 147.58619123 -461.30158257 143.34643412 C-461.30051148 139.80280177 -461.30539982 136.25918738 -461.310188 132.71555889 C-461.32127681 124.35283935 -461.32172424 115.99016473 -461.31567383 107.62744141 C-461.30963503 99.01028686 -461.32194409 90.39329563 -461.3432439 81.77616894 C-461.36087794 74.36875499 -461.36685838 66.96139294 -461.36360615 59.55395877 C-461.36179588 55.13385951 -461.36440379 50.71387673 -461.37832069 46.29379654 C-461.39092364 42.13555583 -461.38893172 37.97756907 -461.37590981 33.81933212 C-461.37354976 32.29720727 -461.37625815 30.7750644 -461.38453293 29.25296021 C-461.47112707 12.07997396 -461.47112707 12.07997396 -456.0625 5.72265625 C-455.381875 5.17480469 -454.70125 4.62695312 -454 4.0625 C-453.319375 3.49660156 -452.63875 2.93070313 -451.9375 2.34765625 C-328.2648014 -83.67468451 -150.64786586 0 0 0 Z " fill="#B87332" transform="translate(2974,45)"/>
</svg>
