<?xml version="1.0" encoding="UTF-8"?>
<svg version="1.1" xmlns="http://www.w3.org/2000/svg" width="4203" height="1080">
<path d="M0 0 C1.07855406 0.00040858 1.07855406 0.00040858 2.17889708 0.00082541 C3.42675324 -0.0168826 3.42675324 -0.0168826 4.69981861 -0.03494835 C5.61379199 -0.0224305 6.52776537 -0.00991265 7.46943492 0.00298452 C8.44061186 -0.0034043 9.41178881 -0.00979312 10.41239536 -0.01637554 C13.68265078 -0.0316944 16.95170793 -0.01111678 20.2219221 0.00921011 C22.56102735 0.00571056 24.90013023 0.00005388 27.23922557 -0.00760508 C33.61031336 -0.02190137 39.98097193 -0.00473455 46.35201877 0.0186801 C52.35257483 0.03673186 58.3531075 0.03354321 64.35368177 0.03120226 C76.26637823 0.02750775 88.17890829 0.04835855 100.09155101 0.0824523 C111.60982313 0.1154046 123.12792015 0.12973498 134.64623851 0.12346792 C147.20503442 0.11666827 159.76375688 0.11927546 172.32254207 0.13882732 C172.99024207 0.13986681 173.65794207 0.1409063 174.34587541 0.14197728 C175.68646641 0.14406804 177.02705737 0.14617901 178.36764831 0.14831045 C182.99205108 0.1551508 187.61643039 0.15581271 192.24083728 0.15442801 C198.5043725 0.1535397 204.76770246 0.16801604 211.03118342 0.19365454 C213.31337886 0.20073458 215.59559628 0.20294013 217.87780017 0.1995368 C274.98839719 0.13070412 328.89634118 20.69321269 370.10742015 60.62444448 C371.77538737 62.28980958 373.44205709 63.95647523 375.10742015 65.62444448 C375.94659983 66.42881948 376.78577952 67.23319448 377.6503889 68.06194448 C384.56248214 74.75963011 390.49538391 81.81249005 396.10742015 89.62444448 C396.5025178 90.16456167 396.89761546 90.70467886 397.30468577 91.26116323 C429.61024729 135.78044768 441.92688235 192.43384102 433.66699046 246.50774527 C427.62053661 282.37009578 413.3465564 316.51789859 390.10742015 344.62444448 C389.2491795 345.68680901 388.39110978 346.74931163 387.5332014 347.81194448 C377.24971162 360.39728395 365.88833825 371.67002548 352.8222639 381.34954214 C351.16296463 382.58314988 349.5255241 383.84175424 347.88867015 385.10491323 C319.01187625 406.98956847 283.76889728 419.06805316 248.10742015 423.62444448 C247.16769358 423.75592886 246.22796702 423.88741323 245.2597639 424.02288198 C238.77410672 424.78348203 232.271423 424.66101839 225.7519514 424.64397573 C224.72831492 424.64256582 223.70467845 424.64115591 222.65002269 424.63970327 C220.1358159 424.63603718 217.62162104 424.63090711 215.10742015 424.62444448 C214.99118454 412.70610439 214.90253184 400.78790081 214.84835929 388.86910772 C214.8223492 383.33373526 214.78710874 377.79875274 214.73022288 372.26360464 C214.67559603 366.91433053 214.64593513 361.56542972 214.63303393 356.21589804 C214.62384889 354.18268098 214.60591345 352.14948261 214.57876986 350.11642599 C214.40689078 336.69992699 214.58429296 325.39350975 224.10742015 314.93694448 C228.20516286 311.14020457 232.72922802 308.08292764 237.36352366 304.9965148 C250.99987554 295.73560258 259.58191571 279.71114321 262.68089503 263.73746061 C263.56208696 257.30603466 263.40273118 250.80963918 263.39794749 244.33025503 C263.40394144 242.70144232 263.41074896 241.07263243 263.41830271 239.4438262 C263.43586937 235.04751324 263.44065377 230.65127826 263.44193429 226.2549336 C263.44336033 223.50599809 263.44763819 220.75708215 263.45292872 218.00815153 C263.47138921 208.41270716 263.47960324 198.81731814 263.47802562 189.22185659 C263.47682124 180.28301316 263.49799157 171.34441 263.52951294 162.40562743 C263.55564939 154.7196248 263.56639421 147.0337009 263.5651148 139.34765416 C263.56460493 134.76167164 263.57030341 130.1759035 263.5914709 125.58996534 C263.61081216 121.28307131 263.61100623 116.97659742 263.59643763 112.6696887 C263.59434419 111.08985548 263.59908232 109.50999618 263.61115855 107.93020773 C263.62658063 105.77311888 263.6173257 103.61748494 263.60189646 101.46042776 C263.602986 100.25388383 263.60407553 99.0473399 263.60519809 97.80423403 C263.00936931 93.9980989 261.77839343 92.34791112 259.10742015 89.62444448 C255.61092335 87.87619609 251.64693959 88.39735612 247.79492015 88.37444448 C246.93962718 88.35381948 246.08433421 88.33319448 245.20312327 88.31194448 C240.35878166 88.28192533 237.01293774 88.41272144 233.10742015 91.62444448 C231.83001513 94.17925451 231.97696768 95.98119505 231.96938914 98.84253836 C231.9639358 99.94873022 231.95848246 101.05492208 231.95286387 102.19463491 C231.95182154 103.41388662 231.95077922 104.63313833 231.9497053 105.88933706 C231.94190623 107.85376693 231.93410311 109.81819679 231.9261474 111.78262603 C231.91842617 113.8980627 231.91304779 116.01349503 231.90818995 118.12894011 C231.89751748 122.53696195 231.87727433 126.94490684 231.85507029 131.35288382 C231.79312182 143.88876204 231.73913999 156.42463608 231.70605296 168.96062613 C231.68770595 175.8814893 231.65876854 182.80222392 231.61804825 189.7229926 C231.59697832 193.38571544 231.58152104 197.04827627 231.57924098 200.71106291 C231.57669395 204.79801164 231.55122946 208.88450998 231.52392405 212.97136831 C231.52843325 214.79113684 231.52843325 214.79113684 231.53303355 216.64766836 C231.51639407 218.31964537 231.51639407 218.31964537 231.49941844 220.02539968 C231.49610829 220.99160647 231.49279814 221.95781326 231.48938769 222.95329905 C230.89907939 227.0813967 229.01488185 229.71698278 226.10742015 232.62444448 C222.34640598 233.05021967 219.86643883 232.97697231 216.41518992 231.3740325 C212.63143164 226.86588071 213.43224414 221.95402337 213.49560374 216.25603628 C213.4871065 214.35544958 213.4871065 214.35544958 213.4784376 212.41646719 C213.46626218 209.66237062 213.46972083 206.90889354 213.48526973 204.1548152 C213.50959788 199.79635447 213.49808626 195.43843547 213.48159617 191.07996511 C213.45709901 183.39696105 213.4629002 175.71420331 213.4754011 168.03118277 C213.49397412 156.47532759 213.48907743 144.91952043 213.45536691 133.36369973 C213.44387899 129.03520065 213.44825677 124.70709687 213.46538728 120.37862003 C213.47139832 118.33121551 213.47065669 116.2839439 213.46699351 114.23653555 C213.46276466 111.74581116 213.46921242 109.25503537 213.48859996 106.76438284 C213.45910818 100.62383191 213.18647435 96.00407703 210.10742015 90.62444448 C206.13646832 87.68611232 201.41452978 88.25663874 196.66992015 88.24944448 C195.82365062 88.2249523 194.97738108 88.20046011 194.10546702 88.17522573 C189.92132913 88.15556651 187.69390979 88.2576054 184.0722639 90.52288198 C181.0516109 93.75371958 180.98266249 95.55219919 180.98284739 99.88050222 C180.98028437 100.99510824 180.97772135 102.10971426 180.97508067 103.25809622 C180.97718043 104.48669867 180.97928019 105.71530111 180.98144358 106.98113394 C180.97857594 108.96053516 180.97570041 110.93993639 180.97252816 112.91933715 C180.96984475 115.05093891 180.96940315 117.18253269 180.96932048 119.31413603 C180.96818131 123.75575997 180.95535145 128.19730057 180.93975657 132.63889456 C180.93718372 133.38816554 180.93461087 134.13743652 180.93196005 134.90941268 C180.92669333 136.4417517 180.92140785 137.97409066 180.91610402 139.50642955 C180.88098088 149.84875918 180.85444216 160.19098583 180.85693187 170.53338003 C180.85852039 177.50703138 180.84248602 184.4803992 180.80622524 191.45395964 C180.78776051 195.14474113 180.77842622 198.83504925 180.79070109 202.52586699 C180.80426447 206.64416067 180.77921143 210.76135219 180.75097483 214.87957144 C180.76626986 216.71336607 180.76626986 216.71336607 180.78187388 218.58420706 C180.66849418 227.7830172 180.66849418 227.7830172 177.78594798 230.88193655 C174.2181585 233.20295088 172.2858208 233.37058746 168.10742015 232.62444448 C165.42591685 230.87896109 165.42591685 230.87896109 163.10742015 227.62444448 C162.36352718 223.39679117 162.45904082 219.20976797 162.51147288 214.92717886 C162.50741435 213.63725531 162.50335582 212.34733175 162.4991743 211.01831961 C162.490395 208.21784385 162.49711529 205.41798842 162.51583499 202.61756277 C162.5449587 198.18817645 162.53712606 193.75932304 162.52393931 189.32988882 C162.50328706 180.72735782 162.51886961 172.12508547 162.53941172 163.52256918 C162.5645634 152.57263912 162.57740893 141.62285307 162.5494554 130.67291832 C162.53950646 126.2710078 162.54961821 121.86973741 162.57536322 117.46789694 C162.58460808 115.3887141 162.58479907 113.30976612 162.58096141 111.23056936 C162.57643258 108.69747999 162.58621923 106.16430835 162.61302012 103.63135672 C162.63710344 97.204945 162.63710344 97.204945 160.2032606 91.39336538 C155.98489037 87.8329974 152.10321527 88.40601799 146.79492015 88.37444448 C145.93962718 88.35381948 145.08433421 88.33319448 144.20312327 88.31194448 C139.35878166 88.28192533 136.01293774 88.41272144 132.10742015 91.62444448 C130.67054875 94.49818728 130.97145854 96.96687756 130.96024913 100.17991018 C130.95657244 100.86115589 130.95289575 101.54240161 130.94910765 102.24429113 C130.93805092 104.53857829 130.93422345 106.83282019 130.93041819 109.12713003 C130.92415449 110.76809219 130.91750777 112.40905293 130.91050547 114.05001211 C130.88943224 119.45371905 130.87909252 124.85742635 130.8691389 130.26116323 C130.86509102 132.12373574 130.86097408 133.98630809 130.85678881 135.84888029 C130.83772133 144.60918918 130.82349978 153.36948962 130.81517684 162.12981528 C130.80543132 172.22014515 130.77918894 182.31025408 130.73867595 192.4005062 C130.70840672 200.20963537 130.69369733 208.01870166 130.69039583 215.82788831 C130.68805546 220.4858629 130.67922968 225.14360191 130.65393466 229.8015132 C130.63046264 234.19531304 130.62649658 238.58872552 130.63669604 242.98257208 C130.63718709 244.58400599 130.63099606 246.1854602 130.61714 247.78683424 C130.45391754 267.79236684 135.74831561 284.67753663 149.81835765 299.44866323 C153.99492385 303.4185393 158.51233665 306.82309532 163.24023265 310.10491323 C171.02491565 315.62523027 176.46513154 322.6219439 178.67342466 332.03781259 C179.09028241 334.52230286 179.23488976 336.80695477 179.23884791 339.32305479 C179.24268906 340.24380958 179.2465302 341.16456436 179.25048774 342.11322081 C179.24962126 343.1160387 179.24875478 344.11885659 179.24786204 345.15206289 C179.25083316 346.22410904 179.25380429 347.29615518 179.25686544 348.40068758 C179.26554873 351.99888135 179.26706035 355.59704184 179.26855296 359.19524527 C179.2731812 361.77236391 179.27820587 364.34948187 179.28359812 366.92659903 C179.2971633 373.93041151 179.30320252 380.93421825 179.30760878 387.93804169 C179.31037267 392.30992933 179.31461013 396.68181477 179.31911296 401.05370092 C179.3313002 413.15624557 179.34160257 425.25878845 179.34498805 437.36133909 C179.3453174 438.52246488 179.3453174 438.52246488 179.3456534 439.70704775 C179.34587168 440.48297725 179.34608996 441.25890674 179.34631485 442.05834925 C179.34675831 443.63067397 179.34720488 445.20299868 179.34765452 446.77532339 C179.34798667 447.94521334 179.34798667 447.94521334 179.34832552 449.13873743 C179.3522781 461.79141167 179.36974853 474.44402849 179.39301404 487.09668054 C179.41670276 500.08408813 179.42918866 513.07146686 179.43035597 526.05889642 C179.4312738 533.35221242 179.4370538 540.64545345 179.45517558 547.93874884 C179.47214507 554.79234595 179.47384793 561.64579823 179.46503657 568.49941015 C179.46426235 571.02019777 179.46865913 573.54099283 179.47849482 576.06176138 C179.49109733 579.4916118 179.4854015 582.92094749 179.47491282 586.35079336 C179.48699743 587.86171236 179.48699743 587.86171236 179.49932617 589.40315497 C179.49273633 590.31869426 179.48614648 591.23423355 179.47935694 592.17751646 C179.47995403 592.96956075 179.48055112 593.76160504 179.4811663 594.57765067 C179.0065952 597.17660504 178.20857553 598.05959498 176.10742015 599.62444448 C172.96676463 600.00755453 172.96676463 600.00755453 169.00927562 600.01885366 C168.28195672 600.02494477 167.55463782 600.03103587 166.80527896 600.03731155 C164.36156436 600.05399672 161.91836768 600.04915807 159.47460765 600.04436636 C157.72535488 600.05170344 155.97610697 600.0602886 154.22686595 600.07003164 C149.47075281 600.09229261 144.71481267 600.0951761 139.95865458 600.09328413 C135.9921872 600.09316466 132.02575678 600.10171907 128.05929965 600.11006165 C118.70487215 600.1293116 109.3505339 600.13217348 99.99609202 600.12542105 C90.33532698 600.11877608 80.67494336 600.14165928 71.0142557 600.17873478 C62.72799488 600.20938546 54.44185706 600.22079694 46.15554065 600.21689796 C41.20283992 600.21482595 36.25043602 600.22037939 31.2977888 600.24479055 C26.64209252 600.26697932 21.98701857 600.265246 17.33131999 600.24486303 C15.62003684 600.24143915 13.90871243 600.24660106 12.19748515 600.26084661 C9.86610986 600.27891977 7.53687296 600.26638283 5.20556468 600.24590445 C3.24660762 600.24697321 3.24660762 600.24697321 1.24807566 600.24806356 C-1.89257985 599.62444448 -1.89257985 599.62444448 -3.56527561 597.69796228 C-5.4375157 593.36258607 -5.3054009 589.50037881 -5.27010328 584.82454062 C-5.2744636 583.82581728 -5.27882392 582.82709394 -5.28331637 581.79810625 C-5.29431895 578.43063474 -5.2838271 575.06356871 -5.27353078 571.69609976 C-5.27698536 569.26583839 -5.28174856 566.83557858 -5.28771251 564.40532207 C-5.29765153 559.11070292 -5.29821211 553.81620484 -5.29057103 548.52159071 C-5.27923944 540.64843267 -5.28501652 532.77535224 -5.29419596 524.90219475 C-5.31000818 510.8420612 -5.30861805 496.78196849 -5.29995922 482.72183104 C-5.29241884 470.41773259 -5.29043951 458.11364914 -5.29402715 445.80954885 C-5.2942563 444.99405992 -5.29448546 444.17857099 -5.29472156 443.33837027 C-5.29565554 440.02821108 -5.29661074 436.71805189 -5.29760085 433.40789271 C-5.30678222 402.34263706 -5.29845054 371.27740747 -5.28231016 340.21215584 C-5.26807286 312.59973419 -5.26934672 284.98735405 -5.28369313 257.37493277 C-5.29974966 226.36726399 -5.30613114 195.35961823 -5.29685634 164.35194588 C-5.29589416 161.04774396 -5.29495564 157.74354204 -5.29402715 154.43934011 C-5.29378992 153.6257341 -5.29355269 152.81212808 -5.29330826 151.97386734 C-5.2898928 139.67612759 -5.29389234 127.37840446 -5.30146581 115.08066702 C-5.31003232 101.10055306 -5.3079232 87.1204864 -5.29162358 73.14037836 C-5.28279774 65.31179887 -5.28226406 57.48332179 -5.2935621 49.65474491 C-5.30105754 43.81844175 -5.29296088 37.9822296 -5.27863838 32.14593679 C-5.27527227 29.7779123 -5.27702534 27.40987419 -5.28426574 25.04185838 C-5.29332057 21.83582275 -5.28410036 18.63035383 -5.27010328 15.42434835 C-5.27712677 14.4939532 -5.28415027 13.56355804 -5.2913866 12.60496908 C-5.19563434 1.71426595 -5.19563434 1.71426595 0 0 Z " fill="#B87333" transform="translate(309.8925798535347,217.3755555152893)"/>
<path d="M0 0 C0 265.32 0 530.64 0 804 C-70.888125 804.04125 -141.77625 804.0825 -214.8125 804.125 C-237.23421143 804.14320801 -259.65592285 804.16141602 -282.75708008 804.18017578 C-310.03845215 804.18920898 -310.03845215 804.18920898 -322.7910614 804.19088745 C-331.7392735 804.19275834 -340.68746084 804.20011915 -349.63566589 804.21115112 C-359.94434989 804.2238417 -370.25301 804.22968133 -380.56170188 804.2268899 C-385.84007646 804.22568001 -391.1183976 804.22765772 -396.39676249 804.23843026 C-401.1625586 804.24809807 -405.92826304 804.24868936 -410.69406319 804.24180222 C-412.4237649 804.2409487 -414.15347216 804.24353159 -415.88316286 804.24976516 C-418.22735139 804.25772188 -420.57120443 804.25350825 -422.91538715 804.24609566 C-424.22048593 804.2468551 -425.5255847 804.24761454 -426.87023193 804.24839699 C-430 804 -430 804 -433 802 C-433.38095093 799.87475586 -433.38095093 799.87475586 -433.38818359 797.21484375 C-433.39764008 796.2204126 -433.40709656 795.22598145 -433.4168396 794.20141602 C-433.41076691 793.12432373 -433.40469421 792.04723145 -433.3984375 790.9375 C-433.40130768 789.835271 -433.40417786 788.73304199 -433.40713501 787.59741211 C-433.40917919 785.26382942 -433.40362475 782.93022973 -433.39111328 780.59667969 C-433.37506535 777.01458604 -433.39095082 773.43362084 -433.41015625 769.8515625 C-433.40817388 767.58853916 -433.40433034 765.32551653 -433.3984375 763.0625 C-433.40451019 761.98540771 -433.41058289 760.90831543 -433.4168396 759.79858398 C-433.40738312 758.80415283 -433.39792664 757.80972168 -433.38818359 756.78515625 C-433.38579681 755.90738525 -433.38341003 755.02961426 -433.38095093 754.12524414 C-433.19238022 753.07324829 -433.19238022 753.07324829 -433 752 C-429.44822822 749.63215214 -427.97014685 749.7511014 -423.75872517 749.75390434 C-422.44258165 749.7499226 -421.12643814 749.74594086 -419.77041149 749.74183846 C-418.30188108 749.74754303 -416.83335139 749.75343381 -415.36482239 749.75949097 C-413.81506784 749.75861651 -412.26531359 749.7568634 -410.71556091 749.75430298 C-406.43708553 749.74980203 -402.15870963 749.75786425 -397.88024689 749.76785454 C-393.20310452 749.77656237 -388.52596704 749.77366701 -383.84881878 749.7722187 C-374.7617873 749.77115356 -365.67479522 749.78040589 -356.58777387 749.79322136 C-346.08109499 749.80759668 -335.57443992 749.8092095 -325.06774902 749.81079102 C-297.31599309 749.82130041 -269.56424596 749.84922251 -241.8125 749.875 C-179.834375 749.91625 -117.85625 749.9575 -54 750 C-54 520.32 -54 290.64 -54 54 C-77.43 54 -100.86 54 -125 54 C-125.99 53.34 -126.98 52.68 -128 52 C-128.38095093 49.87475586 -128.38095093 49.87475586 -128.38818359 47.21484375 C-128.39764008 46.2204126 -128.40709656 45.22598145 -128.4168396 44.20141602 C-128.40773056 42.58577759 -128.40773056 42.58577759 -128.3984375 40.9375 C-128.40130768 39.835271 -128.40417786 38.73304199 -128.40713501 37.59741211 C-128.40917919 35.26382942 -128.40362475 32.93022973 -128.39111328 30.59667969 C-128.37506535 27.01458604 -128.39095082 23.43362084 -128.41015625 19.8515625 C-128.40817388 17.58853916 -128.40433034 15.32551653 -128.3984375 13.0625 C-128.40451019 11.98540771 -128.41058289 10.90831543 -128.4168396 9.79858398 C-128.40738312 8.80415283 -128.39792664 7.80972168 -128.38818359 6.78515625 C-128.38579681 5.90738525 -128.38341003 5.02961426 -128.38095093 4.12524414 C-128.25523712 3.42391357 -128.12952332 2.72258301 -128 2 C-92.49485411 -21.67009726 -42.67187468 0 0 0 Z " fill="#B77333" transform="translate(920,116)"/>
<path d="M0 0 C70.888125 -0.0825 141.77625 -0.165 214.8125 -0.25 C248.44506714 -0.30462402 248.44506714 -0.30462402 282.75708008 -0.36035156 C310.03845215 -0.37841797 310.03845215 -0.37841797 322.7910614 -0.3817749 C331.73930529 -0.38551669 340.68745015 -0.40023828 349.63566589 -0.42230225 C359.94436589 -0.44768344 370.25297036 -0.45936267 380.56170188 -0.4537798 C385.84013959 -0.45136 391.11836356 -0.4553153 396.39676249 -0.47686052 C401.16264623 -0.49619649 405.92816329 -0.49737901 410.69406319 -0.48360443 C412.42377038 -0.48189739 414.15349975 -0.48706338 415.88316286 -0.49953032 C418.22769257 -0.51544608 420.57088067 -0.50701854 422.91538715 -0.49219131 C424.87303532 -0.49446964 424.87303532 -0.49446964 426.87023193 -0.49679399 C430 0 430 0 431.91897887 1.89323449 C433.16587054 4.32325949 433.38002028 5.88997176 433.38818359 8.61328125 C433.39764008 9.52102295 433.40709656 10.42876465 433.4168396 11.36401367 C433.40773056 12.8235144 433.40773056 12.8235144 433.3984375 14.3125 C433.40130768 15.31837158 433.40417786 16.32424316 433.40713501 17.3605957 C433.40917488 19.48552006 433.40365044 21.61046322 433.39111328 23.73535156 C433.37505895 26.98805729 433.39096502 30.23952042 433.41015625 33.4921875 C433.40817381 35.55729441 433.4043301 37.62240055 433.3984375 39.6875 C433.40451019 40.66050049 433.41058289 41.63350098 433.4168396 42.63598633 C433.40738312 43.54372803 433.39792664 44.45146973 433.38818359 45.38671875 C433.38579681 46.18295654 433.38341003 46.97919434 433.38095093 47.79956055 C432.88120601 50.68617497 432.05991704 51.91032086 430 54 C427.21648151 54.49679399 427.21648151 54.49679399 423.75872517 54.49219131 C421.7845099 54.50413654 421.7845099 54.50413654 419.77041149 54.51632309 C418.30187896 54.50491393 416.83334928 54.49313236 415.36482239 54.48101807 C413.81506569 54.48276698 412.26531014 54.48627321 410.71556091 54.49139404 C406.43697342 54.50039618 402.15878382 54.48427184 397.88024689 54.46429092 C393.20310552 54.44687526 388.52598369 54.45266598 383.84881878 54.45556259 C374.76173778 54.45769288 365.67481434 54.43918828 356.58777387 54.41355728 C346.08108319 54.3848066 335.57448775 54.38158101 325.06774902 54.37841797 C297.3159743 54.35739917 269.5642348 54.30155495 241.8125 54.25 C179.834375 54.1675 117.85625 54.085 54 54 C54 283.68 54 513.36 54 750 C77.43 750 100.86 750 125 750 C128.3761519 754.50153587 128.3761519 754.50153587 128.40405273 758.61328125 C128.42307899 759.9748938 128.42307899 759.9748938 128.44248962 761.36401367 C128.43955399 762.33701416 128.43661835 763.31001465 128.43359375 764.3125 C128.4388356 765.31837158 128.44407745 766.32424316 128.44947815 767.3605957 C128.45589648 769.48550494 128.45456382 771.61044971 128.44604492 773.73535156 C128.4375307 776.98827243 128.46630675 780.23943992 128.49804688 783.4921875 C128.49965886 785.55729114 128.49908141 787.62239789 128.49609375 789.6875 C128.51294472 791.14700073 128.51294472 791.14700073 128.53013611 792.63598633 C128.52075516 793.54372803 128.51137421 794.45146973 128.50170898 795.38671875 C128.50154282 796.18295654 128.50137665 796.97919434 128.50120544 797.79956055 C128 800 128 800 124 804 C83.08 804 42.16 804 0 804 C0 538.68 0 273.36 0 0 Z " fill="#B77333" transform="translate(116,116)"/>
<path d="M0 0 C218.73047786 0 218.73047786 0 258.875 39.5 C263.90852462 44.61623512 268.32062548 49.80767271 272 56 C272.3501416 56.58168945 272.7002832 57.16337891 273.06103516 57.76269531 C289.18720188 84.95799479 293.83931812 119.06098878 286.54345703 149.88183594 C282.21195299 166.764194 275.61214157 181.81445756 264 195 C263.32453125 195.81855469 262.6490625 196.63710938 261.953125 197.48046875 C251.75629996 209.48220625 237.21172998 220.41124284 222 225 C227.95071509 234.75380369 234.56590354 244.03428827 241.14599609 253.36816406 C244.0640235 257.51042577 246.96975775 261.66126571 249.875 265.8125 C250.73266968 267.03731079 250.73266968 267.03731079 251.60766602 268.28686523 C256.76114469 275.64989699 261.89281487 283.02802566 267.02099609 290.40869141 C270.89998986 295.98927923 274.79255664 301.55998839 278.69873047 307.12158203 C295 330.34282665 295 330.34282665 295 333 C284.36918677 333.34873188 273.73974895 333.61464464 263.10436535 333.77718258 C258.16459809 333.85523032 253.2287631 333.96090533 248.29125977 334.1315918 C243.51870517 334.29552879 238.74991028 334.38444216 233.97475624 334.42315865 C232.16066583 334.45071427 230.34676437 334.50453806 228.53429222 334.58595085 C214.72993916 335.18091134 214.72993916 335.18091134 210.16454506 331.53367996 C206.84569115 327.97717593 204.33787536 324.01682624 201.99272728 319.77159786 C200.69851904 317.46198413 199.19376575 315.33193503 197.64453125 313.1875 C196.69813571 311.79328271 195.75411979 310.39744715 194.8125 309 C189.8804699 301.73749156 184.89552898 294.51411727 179.875 287.3125 C175.33893804 280.80209349 170.80465031 274.29081292 166.3125 267.75 C165.92051422 267.21525558 165.52852844 266.68051117 165.12466431 266.12956238 C162.57868796 262.57956539 160.58235853 259.18257015 158.89648438 255.14624023 C156.22421766 249.38967279 153.36992639 244.5773157 148 241 C136.57905371 237.65191519 123.88441186 238.91301785 112.1875 239.3125 C100.905625 239.539375 89.62375 239.76625 78 240 C78 270.69 78 301.38 78 333 C52.26 333 26.52 333 0 333 C0 223.11 0 113.22 0 0 Z M78 63 C78 100.95 78 138.9 78 178 C89.67375 178.061875 101.3475 178.12375 113.375 178.1875 C117.02224121 178.21481201 120.66948242 178.24212402 124.42724609 178.27026367 C127.77863656 178.28031439 127.77863656 178.28031439 131.1300354 178.28633118 C132.59010587 178.29085265 134.05016724 178.30121898 135.51016235 178.31672668 C156.94517583 178.53245132 178.87021995 175.65653285 195.47265625 160.78515625 C206.3314973 149.60000612 210.41031575 135.93278404 210.3125 120.6875 C210.30404053 119.30328857 210.30404053 119.30328857 210.29541016 117.89111328 C210.03618756 103.28995143 205.5282299 90.86206146 195.37109375 80.12890625 C177.60970594 64.18169644 153.87315598 62.6374785 131.125 62.8046875 C129.75130375 62.80764103 128.37760522 62.80967336 127.00390625 62.81079102 C122.00256905 62.82112667 117.00128054 62.84904736 112 62.875 C95.17 62.936875 95.17 62.936875 78 63 Z " fill="#B87332" transform="translate(3039,255)"/>
<path d="M0 0 C83.16 0 166.32 0 252 0 C252 20.46 252 40.92 252 62 C194.58 62 137.16 62 78 62 C78 85.43 78 108.86 78 133 C128.82 133 179.64 133 232 133 C232 153.13 232 173.26 232 194 C181.18 194 130.36 194 78 194 C78 219.08 78 244.16 78 270 C137.4 270 196.8 270 258 270 C258 290.79 258 311.58 258 333 C172.86 333 87.72 333 0 333 C0 223.11 0 113.22 0 0 Z " fill="#B77333" transform="translate(2674,255)"/>
<path d="M0 0 C82.83 0 165.66 0 251 0 C251 20.46 251 40.92 251 62 C193.58 62 136.16 62 77 62 C77 85.43 77 108.86 77 133 C127.82 133 178.64 133 231 133 C231 153.13 231 173.26 231 194 C180.18 194 129.36 194 77 194 C77 219.08 77 244.16 77 270 C136.73 270 196.46 270 258 270 C258 290.79 258 311.58 258 333 C172.86 333 87.72 333 0 333 C0 223.11 0 113.22 0 0 Z " fill="#B77333" transform="translate(3840,255)"/>
<path d="M0 0 C3.85083333 3.40244131 7.55938446 6.93824281 11.25732422 10.50537109 C12.44648438 11.58238281 12.44648438 11.58238281 13.65966797 12.68115234 C15.63232422 14.50537109 15.63232422 14.50537109 18.25732422 17.50537109 C18.04646615 21.13358402 16.23560238 22.87653631 13.69482422 25.31787109 C13.05416016 25.94306641 12.41349609 26.56826172 11.75341797 27.21240234 C9.68272535 29.1145879 7.58599209 30.9694906 5.46435547 32.81396484 C1.38631124 36.36654414 -2.56311202 40.04007618 -6.49267578 43.75537109 C-12.41287496 49.33173611 -18.3731145 54.85859807 -24.38720703 60.33349609 C-26.21760137 62.02122288 -28.00308825 63.72532804 -29.74267578 65.50537109 C-33.60831294 63.91204056 -36.08110675 61.4012834 -39.05517578 58.50537109 C-61.47961833 37.41725366 -90.66877172 27.86055998 -121.22631836 28.52905273 C-150.18593366 29.69507974 -178.24876895 39.66179884 -198.29492188 61.17089844 C-209.1997262 73.53301039 -216.39874359 87.64343687 -220.74267578 103.50537109 C-221.22220703 105.24560547 -221.22220703 105.24560547 -221.71142578 107.02099609 C-225.84692099 125.01805857 -225.65226118 145.68832731 -220.74267578 163.50537109 C-220.40236328 164.74802734 -220.06205078 165.99068359 -219.71142578 167.27099609 C-212.09459544 192.28302004 -195.94163826 213.09302298 -172.74267578 225.50537109 C-142.50382108 240.77665465 -107.97440669 242.51799276 -75.85839844 232.24804688 C-71.46712459 230.70659118 -67.30820051 228.72697882 -63.14892578 226.64208984 C-60.74267578 225.50537109 -60.74267578 225.50537109 -58.74267578 225.50537109 C-58.74267578 193.16537109 -58.74267578 160.82537109 -58.74267578 127.50537109 C-35.31267578 127.50537109 -11.88267578 127.50537109 12.25732422 127.50537109 C12.86186973 161.45843837 12.86186973 161.45843837 12.98974609 175.71630859 C13.07866594 185.55149002 13.18303101 195.38474028 13.38891602 205.21826172 C13.53881446 212.38117991 13.63528369 219.54252822 13.66865164 226.70697129 C13.68815047 230.4987021 13.73366289 234.2859439 13.84327507 238.0762291 C14.48363701 261.09487095 14.48363701 261.09487095 10.80397034 266.73177147 C7.39363708 270.14619666 3.58816017 272.14413723 -0.90668678 273.80089569 C-3.57515895 274.8247978 -5.92983702 276.29937182 -8.35986328 277.79052734 C-34.57309568 291.90345677 -63.19473561 300.86900948 -92.74267578 304.50537109 C-93.43627197 304.59963379 -94.12986816 304.69389648 -94.84448242 304.79101562 C-103.70651846 305.85877684 -112.64237495 305.74917567 -121.55517578 305.75537109 C-122.86249664 305.75638321 -122.86249664 305.75638321 -124.19622803 305.75741577 C-137.2809441 305.74132492 -149.90564398 305.23277057 -162.74267578 302.50537109 C-163.58282227 302.33908203 -164.42296875 302.17279297 -165.28857422 302.00146484 C-199.69274271 295.11297727 -230.67282272 279.01106431 -255.74267578 254.50537109 C-256.44263672 253.86728516 -257.14259766 253.22919922 -257.86376953 252.57177734 C-286.33098482 225.99843085 -302.37923224 183.69859693 -303.86865234 145.25366211 C-304.86136163 100.03826723 -294.72980475 57.48011339 -264.74267578 22.50537109 C-264.26572266 21.94865723 -263.78876953 21.39194336 -263.29736328 20.81835938 C-231.87635286 -15.40191634 -185.93327166 -34.25312014 -138.78271484 -38.29833984 C-90.51245835 -41.41505091 -37.75373867 -32.37999273 0 0 Z " fill="#B87332" transform="translate(3712.74267578125,287.49462890625)"/>
<path d="M0 0 C218.58482485 0 218.58482485 0 258.6875 39.1875 C265.32026444 45.84786263 270.42927148 52.81117902 275 61 C275.84111328 62.47533203 275.84111328 62.47533203 276.69921875 63.98046875 C290.64761595 90.01513455 293.3025534 123.61426824 286 152 C285.83371094 152.65677734 285.66742187 153.31355469 285.49609375 153.99023438 C278.38222843 181.31274673 261.25239464 204.37752178 236.96337891 218.87109375 C199.50653645 240.40807952 160.56840675 241.4632384 118.5 241.1875 C98.4525 241.0946875 98.4525 241.0946875 78 241 C78 271.36 78 301.72 78 333 C52.26 333 26.52 333 0 333 C0 223.11 0 113.22 0 0 Z M78 63 C78 100.62 78 138.24 78 177 C90.560625 177.061875 103.12125 177.12375 116.0625 177.1875 C121.96588257 177.22846802 121.96588257 177.22846802 127.98852539 177.27026367 C131.58079902 177.28030974 131.58079902 177.28030974 135.17308044 177.28633118 C136.74744731 177.29087548 138.32180513 177.30129327 139.89610291 177.31672668 C160.29652638 177.50635787 180.61907978 174.26203781 196.2890625 159.90234375 C206.60533092 148.94855312 210.59413077 135.4535481 210.4375 120.625 C210.43065186 119.62130371 210.42380371 118.61760742 210.41674805 117.58349609 C210.24804308 109.76493692 209.23640469 103.19436846 206 96 C205.45666016 94.78183594 205.45666016 94.78183594 204.90234375 93.5390625 C197.81774985 79.46593699 185.96794283 71.85629505 171.35546875 66.99609375 C158.29395126 63.11869333 145.24446371 62.85367819 131.7109375 62.90234375 C130.33113648 62.90381757 128.9513349 62.90483556 127.5715332 62.90539551 C122.5060135 62.9105974 117.44050584 62.92455851 112.375 62.9375 C95.359375 62.9684375 95.359375 62.9684375 78 63 Z " fill="#B87333" transform="translate(1150,255)"/>
<path d="M0 0 C25.74 0 51.48 0 78 0 C85.4375 16.625 85.4375 16.625 89.06845093 24.74217224 C92.44762734 32.29630366 95.82807337 39.84986303 99.2109375 47.40234375 C100.5783194 50.45564215 101.94549788 53.50903155 103.3125 56.5625 C103.65708252 57.33219116 104.00166504 58.10188232 104.35668945 58.89489746 C110.66995165 73.00006584 116.94304855 87.12293039 123.21255493 101.24758911 C129.46656087 115.33410916 135.76741383 129.3987362 142.10421753 143.44818115 C148.11548153 156.77850767 154.06980175 170.13342864 160 183.5 C166.3579041 197.82973887 172.74619184 212.14504757 179.1875 226.4375 C179.55748108 227.25852203 179.92746216 228.07954407 180.30865479 228.92544556 C180.67746765 229.74386932 181.04628052 230.56229309 181.42626953 231.40551758 C182.16570272 233.04638103 182.90512336 234.68725015 183.64453125 236.328125 C184.00768433 237.13400558 184.3708374 237.93988617 184.74499512 238.77018738 C190.75064917 252.10145537 196.71917223 265.44933442 202.67871094 278.80126953 C204.34178179 282.52694048 206.00684877 286.25171344 207.67285156 289.97607422 C209.99749204 295.17331813 212.31859908 300.37212821 214.63751221 305.57192993 C215.54064917 307.59568417 216.44489271 309.61894497 217.35028076 311.64169312 C218.61159459 314.46028964 219.86878452 317.28069076 221.125 320.1015625 C221.50330963 320.94452377 221.88161926 321.78748505 222.27139282 322.6559906 C222.61753632 323.43547562 222.96367981 324.21496063 223.3203125 325.01806641 C223.62211426 325.69398834 223.92391602 326.36991028 224.23486328 327.0663147 C225 329 225 329 226 333 C198.94 333 171.88 333 144 333 C129.9488011 300.21386923 129.9488011 300.21386923 123.83154297 285.05322266 C122.71148165 282.27961708 121.58439097 279.50892735 120.45703125 276.73828125 C119.73657047 274.95849872 119.01650114 273.17855767 118.296875 271.3984375 C117.96266541 270.57789886 117.62845581 269.75736023 117.28411865 268.91195679 C115 263.22972545 115 263.22972545 115 261 C64.51 261.33 14.02 261.66 -38 262 C-47.46273295 284.47399075 -56.89029417 306.91768786 -65.94702148 329.55200195 C-67 332 -67 332 -68 333 C-70.49492388 333.09502416 -72.96206014 333.12557566 -75.45727539 333.11352539 C-76.23770706 333.11367142 -77.01813873 333.11381744 -77.82221985 333.1139679 C-80.4140598 333.11326858 -83.00582878 333.10547536 -85.59765625 333.09765625 C-87.3898464 333.09579213 -89.18203706 333.0943682 -90.97422791 333.09336853 C-95.70070797 333.08954284 -100.42715752 333.07971212 -105.15362549 333.06866455 C-109.9728555 333.05845153 -114.79209042 333.05387115 -119.61132812 333.04882812 C-129.07423219 333.03808989 -138.53711356 333.02101286 -148 333 C-145.17366427 325.50284663 -142.26519702 318.08861882 -138.91796875 310.80859375 C-138.54711151 309.99332214 -138.17625427 309.17805054 -137.79415894 308.33807373 C-137.00417249 306.60213521 -136.21257995 304.86692677 -135.41946411 303.13241577 C-133.28434498 298.46185258 -131.16253339 293.78524257 -129.0390625 289.109375 C-128.39497185 287.69225471 -128.39497185 287.69225471 -127.73786926 286.24650574 C-123.80164606 277.57977811 -119.92045731 268.88929998 -116.0625 260.1875 C-115.74459503 259.47089203 -115.42669006 258.75428406 -115.09915161 258.01596069 C-113.44260649 254.28172549 -111.78709825 250.54703207 -110.13232422 246.81201172 C-106.13462118 237.7892382 -102.13067172 228.76923816 -98.125 219.75 C-97.49191422 218.3242012 -97.49191422 218.3242012 -96.84603882 216.86959839 C-90.53156064 202.65173868 -84.16143147 188.45983574 -77.76028442 174.28082275 C-71.72875162 160.91389213 -65.81475763 147.49817374 -59.9418335 134.06091309 C-53.84265373 120.11338988 -47.6056329 106.23260128 -41.30654907 92.37435913 C-34.66247738 77.75114192 -28.15442389 63.07240095 -21.75195312 48.34179688 C-14.68603684 32.13738674 -7.31924645 16.10234218 0 0 Z M38 78 C33.72049795 86.99239599 29.86065328 96.09108462 26.16616821 105.33447266 C20.18757602 120.28165016 14.04457857 135.15694177 7.8125 150 C7.04928798 151.81907987 6.28610418 153.63817158 5.52294922 155.45727539 C4.40742606 158.11579122 3.2917624 160.7742478 2.17578125 163.43257141 C-1.00428514 171.00777608 -4.18204771 178.58389826 -7.33682251 186.16967773 C-8.10504481 188.01457726 -8.87705742 189.85789705 -9.64916992 191.70117188 C-10.09752197 192.78076172 -10.54587402 193.86035156 -11.0078125 194.97265625 C-11.59006592 196.36883179 -11.59006592 196.36883179 -12.18408203 197.79321289 C-13.11559569 199.92051591 -13.11559569 199.92051591 -13 202 C20.99 202 54.98 202 90 202 C85.25022258 189.24350503 85.25022258 189.24350503 80.14453125 176.6484375 C79.80498917 175.84133331 79.46544708 175.03422913 79.11561584 174.20266724 C78.39157587 172.48214438 77.6662323 170.76216956 76.93963623 169.04272461 C74.96202868 164.36209046 72.99501937 159.67700361 71.02734375 154.9921875 C70.61808655 154.01832092 70.20882935 153.04445435 69.78717041 152.04107666 C64.31273296 139.00097253 58.93163154 125.92223876 53.54614258 112.84521484 C48.7510945 101.20720056 43.90260733 89.59312647 39 78 C38.67 78 38.34 78 38 78 Z " fill="#B87232" transform="translate(1619,255)"/>
<path d="M0 0 C28.05 0 56.1 0 85 0 C89.29 10.23 93.58 20.46 98 31 C100.28256038 36.35853685 102.56968166 41.71388906 104.875 47.0625 C106.14430632 50.01516281 107.41213882 52.96845728 108.6796875 55.921875 C109.01546814 56.70411942 109.35124878 57.48636383 109.69720459 58.29231262 C114.48653909 69.45642561 119.2414486 80.63524167 124 91.8125 C124.48764832 92.9578421 124.97529663 94.1031842 125.47772217 95.28323364 C127.98407302 101.17000837 130.49015783 107.05689629 132.99609375 112.94384766 C135.92363823 119.82099627 138.852253 126.69768866 141.78125 133.57421875 C142.2545575 134.68545609 142.72786499 135.79669342 143.21551514 136.94160461 C145.58638721 142.50783844 147.95754075 148.07395216 150.32910156 153.63989258 C154.83252064 164.21002785 159.3332279 174.78129828 163.82543945 185.35620117 C165.69342639 189.75348425 167.5626407 194.15024526 169.43212891 198.54689026 C170.70945615 201.55116452 171.98584565 204.55583206 173.26098633 207.56103516 C174.66708098 210.87474947 176.07548276 214.18747437 177.484375 217.5 C178.10617645 218.96796021 178.10617645 218.96796021 178.74053955 220.46557617 C180.69521043 225.0552016 182.69968565 229.5727711 185 234 C185.42482666 233.00524658 185.84965332 232.01049316 186.28735352 230.9855957 C195.60694836 209.1709433 204.98527687 187.38252983 214.4375 165.625 C215.16690292 163.94600616 215.16690292 163.94600616 215.91104126 162.23309326 C216.39841766 161.1112262 216.88579407 159.98935913 217.38793945 158.83349609 C223.52423808 144.70820805 229.64770509 130.57751262 235.75 116.4375 C236.32704178 115.10045013 236.32704178 115.10045013 236.91574097 113.73638916 C238.84060951 109.27604806 240.76511826 104.81555184 242.68945312 100.35498047 C246.22849477 92.15204915 249.77084336 83.95054572 253.31286621 75.74890137 C254.87952061 72.12119027 256.44601645 68.49341071 258.01251221 64.8656311 C261.33234285 57.17738895 264.65241086 49.48924935 267.97277832 41.80123901 C269.72628578 37.74113029 271.47972279 33.68099114 273.2331543 29.62084961 C274.06921929 27.68496198 274.90531883 25.74908927 275.74145508 23.81323242 C276.90064081 21.12943228 278.0597076 18.4455808 279.21875 15.76171875 C279.55849854 14.97520432 279.89824707 14.18868988 280.24829102 13.37834167 C280.56789795 12.63820328 280.88750488 11.89806488 281.21679688 11.13549805 C281.49036011 10.50210007 281.76392334 9.86870209 282.04577637 9.21611023 C283.36781533 6.14577747 284.68318192 3.07257553 286 0 C311.74 0 337.48 0 364 0 C362.15037054 5.54888839 360.42087403 10.57619577 358.05859375 15.83984375 C357.63950996 16.78014435 357.63950996 16.78014435 357.21195984 17.73944092 C356.6075833 19.09521203 356.00150066 20.45022366 355.39385986 21.80453491 C353.70638622 25.56809977 352.0346072 29.33861727 350.36328125 33.109375 C350.0090509 33.90828659 349.65482056 34.70719818 349.28985596 35.53031921 C345.15335873 44.88105576 341.13931048 54.28383114 337.125 63.6875 C331.19747175 77.56449094 325.22694317 91.42132686 319.1875 105.25 C318.83271576 106.06244171 318.47793152 106.87488342 318.11239624 107.71194458 C316.71775825 110.90534839 315.3229968 114.0986982 313.92793274 117.29191589 C305.20777375 137.25677987 296.5865147 157.26487168 287.94116211 177.26220703 C283.27779082 188.04842644 278.60757452 198.83165479 273.93359375 209.61328125 C269.61664011 219.57303423 265.30752654 229.5361667 261 239.5 C255.65753777 251.85776555 250.31173296 264.21406081 244.95336914 276.56494141 C242.25164397 282.79453565 239.5561374 289.0267138 236.87130737 295.26361084 C235.41790708 298.63959291 233.96286257 302.01486544 232.5078125 305.39013672 C231.80270053 307.02714166 231.0984155 308.66450308 230.39501953 310.30224609 C229.40997437 312.59563571 228.42205327 314.88776783 227.43359375 317.1796875 C227.00154884 318.18876663 227.00154884 318.18876663 226.56077576 319.2182312 C224.52940707 323.91791228 222.29871597 328.40256807 220 333 C194.59 333 169.18 333 143 333 C138.5140625 322.5121875 138.5140625 322.5121875 133.9375 311.8125 C126.17615258 293.68593898 118.36219529 275.58303244 110.5 257.5 C103.11783188 240.52065639 95.77954428 223.52359552 88.5 206.5 C81.23826247 189.51943911 73.92291167 172.56302537 66.5625 155.625 C56.71994739 132.97449046 46.92255883 110.30486644 37.14916992 87.62443542 C33.80908295 79.87423607 30.4639965 72.12620487 27.1171875 64.37890625 C10.51565155 25.94447442 10.51565155 25.94447442 4.125 10.875 C3.68454346 9.83851318 3.24408691 8.80202637 2.7902832 7.73413086 C2.40831787 6.82928955 2.02635254 5.92444824 1.6328125 4.9921875 C1.31199707 4.23276855 0.99118164 3.47334961 0.66064453 2.69091797 C0 1 0 1 0 0 Z " fill="#B87232" transform="translate(2232,255)"/>
<path d="M0 0 C10.65463718 -0.67625576 21.30408817 -1.18913871 31.97591305 -1.50255299 C36.93466642 -1.65314161 41.87863267 -1.85641165 46.82885742 -2.18774414 C77.91854657 -4.21453828 77.91854657 -4.21453828 85.79270935 1.24237442 C92.19898999 7.14664987 95.67233447 15.27387694 98.70077991 23.28489876 C101.3761702 30.34575621 105.31320974 36.47916396 109.375 42.8125 C110.1696221 44.10642667 110.96091848 45.40241687 111.74560547 46.70239258 C112.36322754 47.71454834 112.98084961 48.7267041 113.6171875 49.76953125 C118.30864886 57.47517582 122.90542788 65.2363363 127.5 73 C135.5156184 86.53949557 143.64329585 100.00623167 151.83251953 113.44140625 C155.36477384 119.23821702 158.88486355 125.04242387 162.40667725 130.84558105 C164.23036114 133.85041734 166.05465699 136.85488192 167.87890625 139.859375 C168.91927083 141.57291667 169.95963542 143.28645833 171 145 C178.75370667 132.99026672 186.14495832 120.78651712 193.41714478 108.48193359 C199.05091562 98.95010257 204.73468065 89.45284447 210.5 80 C216.57222937 70.04214218 222.55907703 60.03672468 228.5 50 C234.76024537 39.42633683 241.06286775 28.88014803 247.4375 18.375 C247.79489258 17.78509277 248.15228516 17.19518555 248.52050781 16.58740234 C249.53162692 14.91929096 250.54506459 13.25258565 251.55859375 11.5859375 C252.12892334 10.6479834 252.69925293 9.7100293 253.28686523 8.74365234 C253.85219971 7.83824707 254.41753418 6.9328418 255 6 C255.81027397 4.45119141 255.81027397 4.45119141 256.63691711 2.87109375 C259 0 259 0 262.40423584 -0.7215271 C263.77693414 -0.73885522 265.15029432 -0.72310079 266.52246094 -0.68115234 C267.27406998 -0.6820285 268.02567902 -0.68290466 268.80006409 -0.68380737 C271.27923292 -0.67963398 273.75568031 -0.63300048 276.234375 -0.5859375 C277.95500205 -0.57474431 279.67564825 -0.5662047 281.39630127 -0.56021118 C285.92105069 -0.53732211 290.44464107 -0.4783993 294.96893311 -0.4119873 C299.58720215 -0.3505658 304.20565883 -0.32319652 308.82421875 -0.29296875 C317.88332124 -0.22865526 326.94156417 -0.12627558 336 0 C332.70784983 6.08604549 329.38977957 12.14090497 325.85546875 18.08984375 C325.48862473 18.70817581 325.1217807 19.32650787 324.74382019 19.96357727 C323.56057933 21.95620205 322.37424056 23.94695785 321.1875 25.9375 C320.34520882 27.35318652 319.50292377 28.76887669 318.66064453 30.18457031 C310.18532434 44.41531123 301.58106529 58.56683972 292.95825195 72.70849609 C290.51182882 76.72111141 288.06714645 80.73478024 285.625 84.75 C285.27741638 85.32141724 284.92983276 85.89283447 284.57171631 86.48156738 C278.40591592 96.62480945 272.33884619 106.82510653 266.2925415 117.03991699 C260.07563009 127.54080608 253.77592667 137.98754057 247.42285156 148.40649414 C241.54863255 158.05134527 235.78912189 167.76234082 230.04058838 177.48248291 C223.50408107 188.52961712 216.83745306 199.48536057 210.00537109 210.35302734 C208.15938508 213.3770734 207.86783657 215.22218018 207.84178162 218.75820923 C207.8319928 219.76224289 207.82220398 220.76627655 207.81211853 221.80073547 C207.80636307 222.90628281 207.8006076 224.01183014 207.79467773 225.15087891 C207.78477814 226.31184586 207.77487854 227.47281281 207.76467896 228.66896057 C207.73299201 232.52147352 207.70827809 236.37399883 207.68359375 240.2265625 C207.66303043 242.89171786 207.64208249 245.5568674 207.62062073 248.22201538 C207.57067537 254.52950748 207.5257434 260.83702501 207.48259836 267.14456689 C207.42840218 275.02870384 207.36753946 282.91278746 207.30664062 290.796875 C207.19800768 304.86454241 207.09948599 318.93225832 207 333 C181.26 333 155.52 333 129 333 C129.12503906 324.66234375 129.25007813 316.3246875 129.37890625 307.734375 C129.42553158 301.7115194 129.46124604 295.68935415 129.48147678 289.66643143 C129.5089759 281.90350036 129.56097555 274.14348977 129.7097168 266.38183594 C131.63594301 224.11117156 131.63594301 224.11117156 113.17300415 187.63734436 C109.33597527 182.98039675 106.48887986 177.72363961 103.5 172.5 C102.26975202 170.43633617 101.03585943 168.37483674 99.796875 166.31640625 C99.17748047 165.28402832 98.55808594 164.25165039 97.91992188 163.18798828 C94.90097583 158.17509441 91.85528221 153.17851033 88.81152344 148.18066406 C82.30416565 137.49470854 75.87351793 126.76632221 69.5 116 C63.51084227 105.88432746 57.48435125 95.79359361 51.375 85.75 C51.02725525 85.1782605 50.6795105 84.606521 50.32122803 84.01745605 C47.88314193 80.01022062 45.44195666 76.00487759 43 72 C33.88138784 57.04521962 24.81476322 42.06258236 15.875 27 C15.47903625 26.33295044 15.08307251 25.66590088 14.67510986 24.9786377 C9.74729465 16.67322706 4.8614713 8.34443977 0 0 Z " fill="#B87332" transform="translate(1840,255)"/>
<path d="M0 0 C5.61 0 11.22 0 17 0 C22.52178681 6.00384757 22.52178681 6.00384757 23.88061523 8.8425293 C24.3392244 9.76864517 24.3392244 9.76864517 24.80709839 10.71347046 C25.27383469 11.65967758 25.27383469 11.65967758 25.75 12.625 C26.44021684 13.90041891 27.13700231 15.17230348 27.84008789 16.44067383 C29.25796353 19.01637831 30.64133677 21.60618808 31.99853516 24.21435547 C34.93601384 29.82687548 38.19553886 35.24727295 41.4375 40.6875 C41.97536133 41.61836426 42.51322266 42.54922852 43.06738281 43.50830078 C43.55948242 44.35505371 44.05158203 45.20180664 44.55859375 46.07421875 C44.98454834 46.81244873 45.41050293 47.55067871 45.84936523 48.3112793 C46.90522653 50.15567105 46.90522653 50.15567105 49 51 C49.24621094 50.32710937 49.49242188 49.65421875 49.74609375 48.9609375 C51.26849416 45.36598575 53.1334906 42.01187636 55.0625 38.625 C55.45953125 37.92383057 55.8565625 37.22266113 56.265625 36.50024414 C59.30719514 31.15530829 62.38435697 25.82714676 65.64086914 20.60961914 C67.64310819 17.38571851 69.41015081 14.18959463 70.96875 10.7265625 C72.94996032 6.54599154 74.69452071 3.30089472 78 0 C83.62094114 -1.76280407 89.27901551 -0.72990167 95 0 C96.35367698 16.89425504 96.11753506 33.82432647 96.06866455 50.75817871 C96.05829069 54.74112411 96.0538373 58.72407614 96.04882812 62.70703125 C96.03821965 70.47137403 96.02068534 78.23567633 96 86 C89.4 86 82.8 86 76 86 C75.67 70.49 75.34 54.98 75 39 C72.03 44.28 69.06 49.56 66 55 C63.69100713 58.83283032 61.37298366 62.64582325 59 66.4375 C58.42894531 67.35853516 57.85789062 68.27957031 57.26953125 69.22851562 C52.51177145 76.87370447 52.51177145 76.87370447 50.1796875 77.44921875 C47.53506856 77.72264545 45.57895266 77.6815503 43 77 C39.89043783 74.18048376 38.05815924 70.62526389 36 67 C35.1876442 65.63247822 34.37235484 64.2666963 33.5546875 62.90234375 C31.85947082 60.06035356 30.18376256 57.20851505 28.52734375 54.34375 C25.73000931 49.53596654 22.86181121 44.76968535 20 40 C19.67 55.18 19.34 70.36 19 86 C12.73 86 6.46 86 0 86 C0 57.62 0 29.24 0 0 Z " fill="#FFFFFF" transform="translate(2135,700)"/>
<path d="M0 0 C18 0 18 0 24.125 5.875 C25.64453125 7.82714844 25.64453125 7.82714844 26.6875 9.484375 C28.66882601 12.52175432 30.81324756 15.32561228 33.125 18.125 C33.76179688 18.92808594 34.39859375 19.73117187 35.0546875 20.55859375 C37.09660672 23.12124338 39.16961644 25.65599383 41.25 28.1875 C46.88506809 35.08304385 52.43696811 42.04621013 58 49 C58.33 32.83 58.66 16.66 59 0 C65.6 0 72.2 0 79 0 C79 28.38 79 56.76 79 86 C62 86 62 86 57.77734375 83.0703125 C56.29003906 81.17480469 56.29003906 81.17480469 54.9375 79.125 C54.41768555 78.43825195 53.89787109 77.75150391 53.36230469 77.04394531 C52.33328038 75.67810284 51.32526704 74.29611831 50.34130859 72.89746094 C48.58996829 70.41995514 46.67830797 68.09124622 44.75 65.75 C44.13511719 64.97011719 43.52023438 64.19023438 42.88671875 63.38671875 C40.07454453 59.82928925 37.19224076 56.33023613 34.31640625 52.82421875 C32.69680978 50.8495674 31.07936347 48.87332119 29.46484375 46.89453125 C28.65144531 45.89808594 27.83804688 44.90164063 27 43.875 C26.2575 42.96492187 25.515 42.05484375 24.75 41.1171875 C23.86722208 40.04918385 22.97977769 38.97977769 22 38 C21.67 53.84 21.34 69.68 21 86 C14.07 86 7.14 86 0 86 C0 57.62 0 29.24 0 0 Z " fill="#FFFFFF" transform="translate(2367,700)"/>
<path d="M0 0 C7.198125 -0.061875 14.39625 -0.12375 21.8125 -0.1875 C24.06167236 -0.21481201 26.31084473 -0.24212402 28.62817383 -0.27026367 C30.44612087 -0.27903991 32.2640739 -0.28668114 34.08203125 -0.29296875 C34.99738647 -0.30831665 35.9127417 -0.32366455 36.85583496 -0.33947754 C46.89490347 -0.3434671 58.27137516 1.82464275 65.94140625 8.75390625 C73.07739593 16.36662175 74.54197631 23.44147701 74.48803711 33.63598633 C74.2122812 41.1324313 72.27880994 46.65222847 66.95703125 52.0859375 C65.02494311 53.81038775 63.04391425 55.4117929 61 57 C60.34 57.66 59.68 58.32 59 59 C59.37286133 59.54414551 59.74572266 60.08829102 60.12988281 60.64892578 C61.83697455 63.14068632 63.54349157 65.63283994 65.25 68.125 C65.83652344 68.9809375 66.42304687 69.836875 67.02734375 70.71875 C68.17042255 72.38841567 69.31175043 74.05928163 70.45117188 75.73144531 C71.39947288 77.12041331 72.3527299 78.50603376 73.31445312 79.88574219 C76 83.7814429 76 83.7814429 76 86 C57.70088754 88.69894811 57.70088754 88.69894811 51.84472656 84.42822266 C46.78406109 78.91153231 43.57562975 72.1372539 40.2421875 65.5 C37.79070922 62.76664442 37.34183894 62.58744378 33.890625 62.1953125 C32.34466835 62.13709196 30.79704631 62.12060665 29.25 62.125 C25.16625 62.063125 25.16625 62.063125 21 62 C21 69.92 21 77.84 21 86 C14.07 86 7.14 86 0 86 C0 57.62 0 29.24 0 0 Z M21 17 C21 26.24 21 35.48 21 45 C26.259375 45.0928125 26.259375 45.0928125 31.625 45.1875 C32.71893066 45.21481201 33.81286133 45.24212402 34.93994141 45.27026367 C41.71228985 45.32803549 46.22084291 44.62893239 51.3125 39.8125 C53.44314125 36.26143125 54.18669091 33.09164248 54 29 C52.74025577 24.55384389 51.66569372 22.53822045 48.0625 19.625 C43.96430943 17.4504499 40.84489566 16.87278913 36.234375 16.90234375 C35.43225586 16.90484131 34.63013672 16.90733887 33.80371094 16.90991211 C32.79598633 16.91901611 31.78826172 16.92812012 30.75 16.9375 C27.5325 16.958125 24.315 16.97875 21 17 Z " fill="#FFFFFF" transform="translate(1261,700)"/>
<path d="M0 0 C10.20172179 6.63652098 16.61546164 14.87130518 20.26953125 26.4921875 C22.86001964 39.19713055 21.40162464 52.45390142 14.26953125 63.4921875 C7.20109419 73.33323183 -2.59996705 79.55582017 -14.4609375 82.05859375 C-30.43834654 84.17746162 -44.5177973 81.50088359 -57.91796875 72.3046875 C-67.27407192 62.94858433 -72.18376023 52.11186707 -72.828125 38.89453125 C-72.46328115 26.18337161 -68.28677922 15.66423719 -59.74609375 6.34375 C-44.16164222 -7.97219966 -18.26355393 -10.08545324 0 0 Z M-43.73046875 18.4921875 C-49.55947831 24.82082646 -52.12945614 31.60592281 -52.015625 40.17578125 C-51.20453645 46.76448683 -48.5975396 53.89550947 -43.73046875 58.4921875 C-35.63739087 64.34461985 -28.73310617 65.49360229 -18.73046875 64.4921875 C-11.8830423 62.40900046 -6.47646917 58.6242542 -2.73046875 52.4921875 C0.74319748 45.51843933 1.70288278 37.57775112 -0.421875 30.0390625 C-3.43586347 22.62389421 -8.021537 16.49614883 -15.46484375 13.21484375 C-25.90979068 9.88326585 -35.16551303 11.71989693 -43.73046875 18.4921875 Z " fill="#FFFFFF" transform="translate(3273.73046875,704.5078125)"/>
<path d="M0 0 C10.03619073 7.69006823 16.73497804 17.0915236 18.6875 29.8125 C19.64516426 43.53288215 17.270312 54.87633632 8.6875 65.8125 C0.30321084 75.20868613 -11.5619322 80.20836155 -23.93359375 81.0625 C-36.88857495 81.59418116 -49.10986869 79.29824751 -59.3125 70.8125 C-60.00988281 70.23757813 -60.70726563 69.66265625 -61.42578125 69.0703125 C-70.24386902 61.06594657 -74.04052184 51.25561035 -75.1875 39.546875 C-75.60750772 26.9991444 -71.93745096 16.24860912 -64.0625 6.4375 C-48.06379679 -10.43640579 -19.12293645 -12.4400343 0 0 Z M-47.94140625 18.7890625 C-53.40798061 26.45543907 -54.96461658 32.78833521 -53.8515625 42.1328125 C-52.30295063 49.83098454 -48.19490694 54.43104879 -42.375 59.5 C-35.94516993 63.59171005 -28.66927603 63.64240658 -21.3125 62.8125 C-14.46404521 60.71393109 -9.06294115 56.95183601 -5.3125 50.8125 C-1.34610617 42.84954964 -0.93784188 34.03567475 -3.75 25.625 C-6.66879478 19.1934101 -11.4591766 14.53345797 -17.91015625 11.65234375 C-28.50697466 8.21596976 -40.46369249 9.71538585 -47.94140625 18.7890625 Z " fill="#FFFFFF" transform="translate(2884.3125,706.1875)"/>
<path d="M0 0 C0.92039062 0.42539062 1.84078125 0.85078125 2.7890625 1.2890625 C13.4321754 6.6536504 20.79440931 14.29071131 24.75 25.625 C28.87574809 39.28425637 27.30841524 51.70145512 20.62109375 64.2421875 C14.85231579 74.05606037 5.97483916 80.21668329 -4.9296875 83.4921875 C-19.35956811 87.03159218 -33.52733322 85.44330619 -46.65234375 78.43359375 C-56.80072643 72.23649484 -62.45486776 63.19515445 -66 52 C-68.69191895 40.7428844 -66.94274539 28.14865203 -61.33984375 18 C-55.70243853 9.58498112 -49.27060068 4.03590805 -40 0 C-39.2678125 -0.33902344 -38.535625 -0.67804687 -37.78125 -1.02734375 C-26.8985705 -5.18498715 -10.55258276 -4.92453862 0 0 Z M-39.30859375 22.03125 C-44.65409736 28.25326806 -46.37622304 35.22447269 -46.28125 43.2734375 C-45.5384063 50.47489446 -42.27050349 57.073225 -37 62 C-29.5397298 67.3571845 -21.9956149 68.2585608 -13 67 C-6.48801169 65.0919174 -1.9295516 61.82404675 1.81640625 56.16796875 C6.18742645 48.16164462 7.3771595 40.27179494 4.9375 31.4375 C2.5418706 25.0342289 -1.80648324 19.95530833 -7.75 16.5625 C-18.93107207 11.72744181 -30.5485549 13.67824326 -39.30859375 22.03125 Z " fill="#FFFFFF" transform="translate(1724,702)"/>
<path d="M0 0 C10.51875 -0.0928125 10.51875 -0.0928125 21.25 -0.1875 C23.43786133 -0.21481201 25.62572266 -0.24212402 27.87988281 -0.27026367 C41.89994433 -0.37283011 55.09812983 -0.20192473 65.9375 9.78515625 C71.95707756 16.0931719 74.0801135 22.23071409 74.4375 30.875 C74.18871149 39.74091774 71.47497358 47.82618798 65 54 C62.71787475 55.51666241 60.44930329 56.75133558 58 58 C62.31638092 65.00339951 66.86403176 71.73409349 71.79833984 78.31494141 C75 82.67520311 75 82.67520311 75 86 C55.52966587 87.95908935 55.52966587 87.95908935 50.00390625 83.6796875 C48.00888854 80.54064555 46.50384125 77.39860146 45 74 C43.70813144 72.09619371 42.37699213 70.21817537 41 68.375 C38 64.23660714 38 64.23660714 38 62 C32.06 62 26.12 62 20 62 C20 69.92 20 77.84 20 86 C13.4 86 6.8 86 0 86 C0 57.62 0 29.24 0 0 Z M20 17 C20 26.24 20 35.48 20 45 C23.650625 45.0825 27.30125 45.165 31.0625 45.25 C32.19953369 45.28641602 33.33656738 45.32283203 34.50805664 45.36035156 C40.91913386 45.43023935 44.82475864 44.88143102 50 41 C52.74206083 37.1080427 53.54823533 33.63248082 53.3515625 28.95703125 C52.54736768 24.48034674 50.04289727 21.73765904 46.4375 19.1875 C42.81387987 17.4221466 40.09651396 16.87820295 36.11328125 16.90234375 C34.845448 16.90609009 34.845448 16.90609009 33.55200195 16.90991211 C32.48296631 16.91901611 31.41393066 16.92812012 30.3125 16.9375 C26.909375 16.958125 23.50625 16.97875 20 17 Z " fill="#FFFFFF" transform="translate(2935,700)"/>
<path d="M0 0 C6.93 0 13.86 0 21 0 C21 10.89 21 21.78 21 33 C33.21 33 45.42 33 58 33 C58 22.11 58 11.22 58 0 C64.93 0 71.86 0 79 0 C79 28.38 79 56.76 79 86 C72.07 86 65.14 86 58 86 C58 74.45 58 62.9 58 51 C45.79 51 33.58 51 21 51 C21 62.55 21 74.1 21 86 C14.07 86 7.14 86 0 86 C0 57.62 0 29.24 0 0 Z " fill="#FFFFFF" transform="translate(3091,700)"/>
<path d="M0 0 C21.45 0 42.9 0 65 0 C65 5.61 65 11.22 65 17 C50.15 17 35.3 17 20 17 C20 22.61 20 28.22 20 34 C32.87 34 45.74 34 59 34 C59 39.28 59 44.56 59 50 C46.13 50 33.26 50 20 50 C20 56.27 20 62.54 20 69 C35.18 69 50.36 69 66 69 C66 74.61 66 80.22 66 86 C44.22 86 22.44 86 0 86 C0 57.62 0 29.24 0 0 Z " fill="#FFFFFF" transform="translate(2268,700)"/>
<path d="M0 0 C7.198125 -0.061875 14.39625 -0.12375 21.8125 -0.1875 C24.06167236 -0.21481201 26.31084473 -0.24212402 28.62817383 -0.27026367 C30.44612087 -0.27903991 32.2640739 -0.28668114 34.08203125 -0.29296875 C34.99738647 -0.30831665 35.9127417 -0.32366455 36.85583496 -0.33947754 C47.59281792 -0.34374446 58.60673619 2.27823874 66.78515625 9.59765625 C73.94808873 17.32376769 74.77846673 25.70922537 74.40625 35.859375 C73.85789599 43.43351476 70.6825136 48.70324706 65.25 53.875 C57.91353664 59.75526553 50.14996181 62.14359587 40.82421875 62.09765625 C39.66728516 62.09443359 38.51035156 62.09121094 37.31835938 62.08789062 C36.12017578 62.07951172 34.92199219 62.07113281 33.6875 62.0625 C32.46998047 62.05798828 31.25246094 62.05347656 29.99804688 62.04882812 C26.99867682 62.03706589 23.99933211 62.0191311 21 62 C21 69.92 21 77.84 21 86 C14.07 86 7.14 86 0 86 C0 57.62 0 29.24 0 0 Z M21 17 C21 26.24 21 35.48 21 45 C26.259375 45.0928125 26.259375 45.0928125 31.625 45.1875 C32.71893066 45.21481201 33.81286133 45.24212402 34.93994141 45.27026367 C41.71228985 45.32803549 46.22084291 44.62893239 51.3125 39.8125 C53.44314125 36.26143125 54.18669091 33.09164248 54 29 C52.74025577 24.55384389 51.66569372 22.53822045 48.0625 19.625 C43.96430943 17.4504499 40.84489566 16.87278913 36.234375 16.90234375 C35.43225586 16.90484131 34.63013672 16.90733887 33.80371094 16.90991211 C32.79598633 16.91901611 31.78826172 16.92812012 30.75 16.9375 C27.5325 16.958125 24.315 16.97875 21 17 Z " fill="#FFFFFF" transform="translate(1832,700)"/>
<path d="M0 0 C10.51875 -0.0928125 10.51875 -0.0928125 21.25 -0.1875 C23.43786133 -0.21481201 25.62572266 -0.24212402 27.87988281 -0.27026367 C41.74998011 -0.37236527 54.64134749 0.00604917 66 9 C72.87046179 16.14128912 74.38773904 23.33656145 74.29101562 33.02758789 C74.06471232 42.14572507 71.60353967 47.29572649 65.38671875 53.94921875 C58.35729398 59.98923185 49.90444755 62.14238644 40.82421875 62.09765625 C39.66728516 62.09443359 38.51035156 62.09121094 37.31835938 62.08789062 C36.12017578 62.07951172 34.92199219 62.07113281 33.6875 62.0625 C32.46998047 62.05798828 31.25246094 62.05347656 29.99804688 62.04882812 C26.99867682 62.03706589 23.99933211 62.0191311 21 62 C21 69.92 21 77.84 21 86 C14.07 86 7.14 86 0 86 C0 57.62 0 29.24 0 0 Z M21 17 C21 26.24 21 35.48 21 45 C26.259375 45.0928125 26.259375 45.0928125 31.625 45.1875 C32.71893066 45.21481201 33.81286133 45.24212402 34.93994141 45.27026367 C41.72371858 45.32813299 46.0564362 44.47879057 51.375 40 C53.85450876 35.42244536 53.62910339 31.09420303 53 26 C51.30828203 21.72618619 49.09322665 19.99669593 45 18 C42.01524731 17.08320981 39.34985219 16.88237274 36.234375 16.90234375 C35.43225586 16.90484131 34.63013672 16.90733887 33.80371094 16.90991211 C32.79598633 16.91901611 31.78826172 16.92812012 30.75 16.9375 C27.5325 16.958125 24.315 16.97875 21 17 Z " fill="#FFFFFF" transform="translate(3422,700)"/>
<path d="M0 0 C10.51875 -0.0928125 10.51875 -0.0928125 21.25 -0.1875 C23.43786133 -0.21481201 25.62572266 -0.24212402 27.87988281 -0.27026367 C41.58587772 -0.37108037 54.8833267 -0.13861755 66 9 C72.93561012 17.0291918 74.47608327 24.86212415 74.3125 35.30078125 C73.89237761 40.27398003 72.69823087 43.83386365 70 48 C69.61070313 48.62261719 69.22140625 49.24523437 68.8203125 49.88671875 C63.81250831 56.71688956 55.22736502 60.68175005 47 62 C44.94266727 62.07905625 42.88304487 62.10779825 40.82421875 62.09765625 C39.66728516 62.09443359 38.51035156 62.09121094 37.31835938 62.08789062 C36.12017578 62.07951172 34.92199219 62.07113281 33.6875 62.0625 C32.46998047 62.05798828 31.25246094 62.05347656 29.99804688 62.04882812 C26.99867682 62.03706589 23.99933211 62.0191311 21 62 C21 69.92 21 77.84 21 86 C14.07 86 7.14 86 0 86 C0 57.62 0 29.24 0 0 Z M21 17 C21 26.24 21 35.48 21 45 C26.259375 45.0928125 26.259375 45.0928125 31.625 45.1875 C32.71893066 45.21481201 33.81286133 45.24212402 34.93994141 45.27026367 C41.32544384 45.32473549 45.73699899 44.70041463 50.8125 40.5 C54.02418105 36.44313973 53.42992774 30.88554248 53 26 C51.28192304 21.75002016 49.08343928 19.9919216 45 18 C42.01524731 17.08320981 39.34985219 16.88237274 36.234375 16.90234375 C35.43225586 16.90484131 34.63013672 16.90733887 33.80371094 16.90991211 C32.79598633 16.91901611 31.78826172 16.92812012 30.75 16.9375 C27.5325 16.958125 24.315 16.97875 21 17 Z " fill="#FFFFFF" transform="translate(1465,700)"/>
<path d="M0 0 C0.83265381 0.00523682 1.66530762 0.01047363 2.52319336 0.01586914 C3.42231445 0.0190918 4.32143555 0.02231445 5.24780273 0.02563477 C6.66609375 0.03820312 6.66609375 0.03820312 8.11303711 0.05102539 C9.06243164 0.05553711 10.01182617 0.06004883 10.98999023 0.06469727 C13.34356776 0.07652429 15.69702188 0.09300514 18.05053711 0.11352539 C23.63056854 11.03329981 28.81009469 22.07341381 33.73803711 33.30102539 C35.1272542 36.45268888 36.51866832 39.60338114 37.90991211 42.75415039 C38.42822853 43.92964699 38.42822853 43.92964699 38.95701599 45.12889099 C41.25728892 50.33967068 43.58797171 55.53582244 45.94116211 60.72290039 C46.24476151 61.39352005 46.5483609 62.06413971 46.86116028 62.75508118 C48.59234817 66.57945686 48.59234817 66.57945686 50.33358765 70.39926147 C51.11748208 72.11314175 51.89471603 73.83006369 52.67163086 75.54711914 C53.10918701 76.50674561 53.54674316 77.46637207 53.99755859 78.45507812 C55.05053711 81.11352539 55.05053711 81.11352539 56.05053711 86.11352539 C48.79053711 86.11352539 41.53053711 86.11352539 34.05053711 86.11352539 C32.89553711 83.34977539 31.74053711 80.58602539 30.55053711 77.73852539 C30.18508789 76.86921387 29.81963867 75.99990234 29.44311523 75.10424805 C29.01675781 74.07630127 29.01675781 74.07630127 28.58178711 73.02758789 C28.28852539 72.32585449 27.99526367 71.62412109 27.69311523 70.90112305 C27.05053711 69.11352539 27.05053711 69.11352539 27.05053711 67.11352539 C14.51053711 67.44352539 1.97053711 67.77352539 -10.94946289 68.11352539 C-13.25946289 73.72352539 -15.56946289 79.33352539 -17.94946289 85.11352539 C-18.94946289 86.11352539 -18.94946289 86.11352539 -20.99072266 86.22705078 C-21.865271 86.22181396 -22.73981934 86.21657715 -23.64086914 86.21118164 C-24.58510742 86.20795898 -25.5293457 86.20473633 -26.50219727 86.20141602 C-27.49541992 86.19303711 -28.48864258 86.1846582 -29.51196289 86.17602539 C-30.50905273 86.17151367 -31.50614258 86.16700195 -32.53344727 86.16235352 C-35.00551138 86.15052546 -37.47745807 86.13404388 -39.94946289 86.11352539 C-37.62312585 78.35334574 -34.32344137 71.13872482 -30.91140747 63.81390381 C-23.23238122 47.32031893 -15.88358817 30.6891291 -8.62695312 14.00610352 C-8.06812943 12.72462936 -8.06812943 12.72462936 -7.49801636 11.41726685 C-6.79602406 9.80709505 -6.09607799 8.19602915 -5.39846802 6.58395386 C-2.59301132 0.15100191 -2.59301132 0.15100191 0 0 Z M7.05053711 23.11352539 C5.47706451 26.75845794 3.91069467 30.4063512 2.35083008 34.05712891 C1.81924438 35.2985226 1.28572866 36.53909169 0.75024414 37.77880859 C-0.01932132 39.56137349 -0.78136979 41.34717768 -1.54321289 43.13305664 C-2.00405273 44.206604 -2.46489258 45.28015137 -2.93969727 46.38623047 C-4.12306812 49.09771508 -4.12306812 49.09771508 -3.94946289 52.11352539 C3.97053711 52.11352539 11.89053711 52.11352539 20.05053711 52.11352539 C19.24610014 48.09134053 18.33584009 45.09266029 16.76538086 41.37524414 C16.31743164 40.30854492 15.86948242 39.2418457 15.40795898 38.14282227 C14.93938477 37.0400293 14.47081055 35.93723633 13.98803711 34.80102539 C13.5155957 33.67889648 13.0431543 32.55676758 12.55639648 31.40063477 C11.39192388 28.63648262 10.22317439 25.87422139 9.05053711 23.11352539 C8.39053711 23.11352539 7.73053711 23.11352539 7.05053711 23.11352539 Z " fill="#FFFFFF" transform="translate(1960.949462890625,699.886474609375)"/>
<path d="M0 0 C0.83265381 0.00523682 1.66530762 0.01047363 2.52319336 0.01586914 C3.42231445 0.0190918 4.32143555 0.02231445 5.24780273 0.02563477 C6.66609375 0.03820312 6.66609375 0.03820312 8.11303711 0.05102539 C9.06243164 0.05553711 10.01182617 0.06004883 10.98999023 0.06469727 C13.34356776 0.07652429 15.69702188 0.09300514 18.05053711 0.11352539 C21.98411245 7.83564774 25.69324693 15.61598109 29.17553711 23.55102539 C29.92854103 25.25804274 30.68157402 26.96504736 31.43518066 28.67179871 C31.99580757 29.94152257 32.55609924 31.21139449 33.11608887 32.48139954 C35.81639672 38.59951755 38.54656516 44.70416333 41.27709961 50.80883789 C42.65777878 53.89984736 44.03805233 56.99103759 45.41815186 60.08230591 C46.34001629 62.14539935 47.26307232 64.20796076 48.18731689 66.26998901 C49.49410374 69.18637195 50.79624661 72.10478727 52.09741211 75.02368164 C52.69653915 76.35624496 52.69653915 76.35624496 53.30776978 77.71572876 C53.66986542 78.53028534 54.03196106 79.34484192 54.4050293 80.18408203 C54.72413269 80.89762344 55.04323608 81.61116486 55.37200928 82.34632874 C56.05053711 84.11352539 56.05053711 84.11352539 56.05053711 86.11352539 C48.79053711 86.11352539 41.53053711 86.11352539 34.05053711 86.11352539 C32.89553711 83.34977539 31.74053711 80.58602539 30.55053711 77.73852539 C30.18508789 76.86921387 29.81963867 75.99990234 29.44311523 75.10424805 C29.01675781 74.07630127 29.01675781 74.07630127 28.58178711 73.02758789 C28.28852539 72.32585449 27.99526367 71.62412109 27.69311523 70.90112305 C27.05053711 69.11352539 27.05053711 69.11352539 27.05053711 67.11352539 C14.51053711 67.44352539 1.97053711 67.77352539 -10.94946289 68.11352539 C-13.25946289 73.72352539 -15.56946289 79.33352539 -17.94946289 85.11352539 C-18.94946289 86.11352539 -18.94946289 86.11352539 -20.99072266 86.22705078 C-21.865271 86.22181396 -22.73981934 86.21657715 -23.64086914 86.21118164 C-24.58510742 86.20795898 -25.5293457 86.20473633 -26.50219727 86.20141602 C-27.49541992 86.19303711 -28.48864258 86.1846582 -29.51196289 86.17602539 C-30.50905273 86.17151367 -31.50614258 86.16700195 -32.53344727 86.16235352 C-35.00551138 86.15052546 -37.47745807 86.13404388 -39.94946289 86.11352539 C-37.23528826 77.028292 -33.22811168 68.54550238 -29.32446289 59.92602539 C-28.57468486 58.26256312 -27.82534317 56.59890412 -27.07641602 54.93505859 C-25.90792465 52.33945781 -24.73901941 49.74404984 -23.56842041 47.1493988 C-20.72254535 40.84034651 -17.89733431 34.52231935 -15.08227539 28.19946289 C-14.29795522 26.43928044 -13.51361311 24.67910776 -12.72924805 22.91894531 C-11.59208085 20.36686585 -10.45547208 17.81454615 -9.32073975 15.26138306 C-8.27200447 12.90255769 -7.2204369 10.54501486 -6.16821289 8.18774414 C-5.85546417 7.48229462 -5.54271545 6.77684509 -5.2204895 6.05001831 C-2.58159112 0.15033687 -2.58159112 0.15033687 0 0 Z M7.05053711 22.11352539 C5.33931254 26.22433281 3.63037471 30.33608081 1.92358398 34.44873047 C1.34218682 35.84873354 0.76015683 37.24847399 0.17749023 38.64794922 C-0.65814621 40.65532418 -1.49152942 42.66362138 -2.32446289 44.67211914 C-3.07856445 46.48667603 -3.07856445 46.48667603 -3.84790039 48.33789062 C-5.01094294 50.77073269 -5.01094294 50.77073269 -4.94946289 52.11352539 C3.30053711 52.11352539 11.55053711 52.11352539 20.05053711 52.11352539 C17.84764952 45.50486263 15.55535592 39.0723089 12.98803711 32.61352539 C12.63676758 31.70860352 12.28549805 30.80368164 11.92358398 29.87133789 C11.41214844 28.58356445 11.41214844 28.58356445 10.89038086 27.26977539 C10.58479248 26.4944043 10.2792041 25.7190332 9.96435547 24.92016602 C9.18413618 22.93187356 9.18413618 22.93187356 7.05053711 22.11352539 Z " fill="#FFFFFF" transform="translate(3696.949462890625,699.886474609375)"/>
<path d="M0 0 C0.96736084 0.00088623 1.93472168 0.00177246 2.93139648 0.00268555 C12.75618081 0.16450166 20.9086333 2.07129389 29.3125 7.375 C28.70613767 13.13544212 26.55591721 18.09514369 24.3125 23.375 C21.17157789 22.67862928 18.34900427 21.59143483 15.375 20.375 C6.59878978 17.17619441 -2.09664154 16.16014238 -10.98046875 19.390625 C-13.02589759 20.40193071 -13.02589759 20.40193071 -14.6875 23.375 C-15.35435938 25.83172892 -15.35435938 25.83172892 -14.6875 28.375 C-9.38119584 32.93110254 -3.09736741 34.12601184 3.5625 35.8125 C24.81210763 41.19455199 24.81210763 41.19455199 31.25390625 50.41015625 C34.06692836 55.6313744 33.97774949 61.60185792 33.3125 67.375 C31.12927291 74.21838896 27.45523754 79.59211723 21.3125 83.375 C5.80695978 91.02932224 -11.68158861 89.76773441 -27.6875 84.375 C-31.14516317 82.89553927 -34.44400431 81.27743497 -37.6875 79.375 C-37.21162884 73.34729862 -34.49027043 68.60821711 -31.6875 63.375 C-27.09192666 64.34480924 -22.94918394 66.35348385 -18.66015625 68.21875 C-13.47633539 70.23505877 -8.80227068 70.55790307 -3.25 70.625 C-1.97253906 70.65078125 -0.69507812 70.6765625 0.62109375 70.703125 C4.58323963 70.35093426 6.95727096 69.4732701 10.3125 67.375 C11.833065 64.79665065 12.41140127 63.2909212 12.08984375 60.31298828 C11.49613965 58.24756662 11.49613965 58.24756662 9.6328125 57.42919922 C8.90835938 57.22311035 8.18390625 57.01702148 7.4375 56.8046875 C6.21546875 56.44648926 6.21546875 56.44648926 4.96875 56.08105469 C4.0921875 55.84805664 3.215625 55.61505859 2.3125 55.375 C1.4359375 55.13942383 0.559375 54.90384766 -0.34375 54.66113281 C-4.06151292 53.68228216 -7.78351627 52.72349874 -11.515625 51.80078125 C-19.82848205 49.6296859 -28.07330214 46.49280451 -33.52734375 39.51953125 C-36.94379865 33.20426613 -37.54772296 25.32627061 -35.5625 18.46484375 C-32.25537375 10.56612705 -26.4185289 5.81344628 -18.6875 2.375 C-12.40234752 0.41215024 -6.56464759 -0.01079805 0 0 Z " fill="#FFFFFF" transform="translate(3357.6875,698.625)"/>
<path d="M0 0 C-0.63197891 3.58551297 -1.56341924 6.85412424 -2.875 10.25 C-3.20242187 11.12140625 -3.52984375 11.9928125 -3.8671875 12.890625 C-5 15 -5 15 -8 16 C-9.91015625 15.29296875 -9.91015625 15.29296875 -12.0625 14.1875 C-20.50219223 10.26079344 -28.82448284 9.0327921 -38 11 C-40.78315908 12.03497052 -41.82811304 12.82811304 -44 15 C-44.75015195 18.04308291 -44.75015195 18.04308291 -44 21 C-41.63866815 24.13798253 -38.94396748 24.86698455 -35.25 25.9375 C-34.09628906 26.27652344 -32.94257813 26.61554687 -31.75390625 26.96484375 C-28.55399149 27.8472344 -25.34862029 28.68418956 -22.13183594 29.5012207 C-11.50874156 32.22635654 -4.46056816 34.80129631 2 44 C4.93251474 50.12003077 4.69819111 56.25007834 2.8125 62.625 C0.0618276 70.03653397 -4.96837775 74.68408449 -12 78 C-26.41954782 83.44544857 -44.50103555 82.55921882 -58.53515625 76.46484375 C-61.40310225 75.0459652 -64.21571999 73.5757189 -67 72 C-66.45390568 67.71912268 -65.44712219 64.43812928 -63.4375 60.625 C-62.98246094 59.75101563 -62.52742188 58.87703125 -62.05859375 57.9765625 C-61.53458984 56.99816406 -61.53458984 56.99816406 -61 56 C-56.37809939 56.97770975 -52.19718322 58.98521121 -47.875 60.84375 C-42.88398012 62.851008 -38.49092618 63.21061706 -33.125 63.25 C-32.43019531 63.270625 -31.73539063 63.29125 -31.01953125 63.3125 C-26.24448191 63.34847024 -23.07285427 62.46613194 -19 60 C-17.70078654 58.89745874 -17.70078654 58.89745874 -17.5625 56.1875 C-17.6651802 52.85852941 -17.6651802 52.85852941 -20.25390625 51.01953125 C-25.14813692 47.99307374 -30.85669309 46.9085189 -36.375 45.5 C-47.95758042 42.52278743 -56.88750378 40.10723147 -64 30 C-67.1652564 23.53186736 -66.82162019 16.65296686 -64.5625 9.9375 C-61.5297509 3.16646642 -56.83816171 -1.06175571 -50.26171875 -4.3828125 C-34.83757831 -10.10434838 -13.84808744 -9.12714854 0 0 Z " fill="#FFFFFF" transform="translate(2637,706)"/>
<path d="M0 0 C2.93777987 2.10069922 5.59753855 4.28417401 8 7 C6.44997253 10.88397689 3.99523379 13.02979619 0.875 15.75 C-0.03507812 16.54921875 -0.94515625 17.3484375 -1.8828125 18.171875 C-2.58148437 18.77515625 -3.28015625 19.3784375 -4 20 C-6.7488257 18.68640188 -9.23046982 17.2074502 -11.75 15.5 C-18.13993802 11.5151309 -23.9282256 10.41361756 -31.40625 11.39453125 C-37.1868056 12.74390793 -42.23669224 15.23669224 -46.4375 19.4375 C-50.70316478 26.43319024 -53.00702843 32.70600196 -52 41 C-50.31876087 47.51480164 -48.38204105 52.69436716 -43 57 C-42.360625 57.556875 -41.72125 58.11375 -41.0625 58.6875 C-34.64499854 62.77136456 -27.34483532 62.85244865 -20 62 C-14.53203161 60.16761006 -9.68972599 57.52830007 -6 53 C-2.09714233 54.58667578 0.33520982 57.13350481 3.25 60.125 C4.14203125 61.03507813 5.0340625 61.94515625 5.953125 62.8828125 C6.62859375 63.58148437 7.3040625 64.28015625 8 65 C3.46274744 73.40600709 -5.18568922 77.1543202 -14 80 C-27.11827134 83.32917474 -41.47629591 81.21808308 -53.25 74.875 C-63.48794827 68.4779552 -69.47347545 59.94204499 -72.74609375 48.359375 C-75.32132524 36.77971339 -74.30316035 25.00113148 -68.609375 14.484375 C-61.63772552 3.72231415 -53.15526498 -2.77258158 -40.89453125 -6.26953125 C-26.58169596 -8.95408511 -12.45567769 -7.92816964 0 0 Z " fill="#FFFFFF" transform="translate(1224,706)"/>
<path d="M0 0 C21.45 0 42.9 0 65 0 C65 5.61 65 11.22 65 17 C50.48 17 35.96 17 21 17 C21 23.93 21 30.86 21 38 C33.87 38 46.74 38 60 38 C60 43.61 60 49.22 60 55 C47.13 55 34.26 55 21 55 C21 65.23 21 75.46 21 86 C14.07 86 7.14 86 0 86 C0 57.62 0 29.24 0 0 Z " fill="#FFFFFF" transform="translate(2721,700)"/>
<path d="M0 0 C7.33177715 -2.16713038 14.92984031 -3.48747697 22 0 C29.36771136 7.09059207 33.93843399 17.68931387 38.32516479 26.7816925 C39.87397357 29.98113982 41.22172937 32.71618999 44 35 C46.34902257 31.14127457 48.69679366 27.28179149 51.04345703 23.42163086 C51.84032209 22.11120545 52.63751629 20.80098014 53.43505859 19.4909668 C54.58780166 17.59738072 55.73932072 15.70305487 56.890625 13.80859375 C57.24183411 13.23225693 57.59304321 12.6559201 57.95489502 12.06211853 C60.37496999 8.07633403 62.68456684 4.05200803 65 0 C71.93 0 78.86 0 86 0 C84.30320197 4.24199508 82.36960297 7.96723121 80.03515625 11.85546875 C79.645522 12.50949677 79.25588776 13.16352478 78.85444641 13.83737183 C78.0226482 15.23274545 77.18943309 16.62727527 76.35491943 18.02102661 C75.04980982 20.20877246 73.75825123 22.40405592 72.46923828 24.60131836 C65.27088981 36.8217645 65.27088981 36.8217645 61.33203125 42.0234375 C51.40363749 55.3723412 52.56273386 69.99402547 53 86 C46.07 86 39.14 86 32 86 C32.04382812 83.88722656 32.08765625 81.77445313 32.1328125 79.59765625 C32.28632084 64.37602538 32.2579362 51.96805253 22.75292969 39.44824219 C19.28028638 34.59814927 16.32274771 29.39919616 13.26660156 24.28015137 C11.79427174 21.82306716 10.30237349 19.37820986 8.80926514 16.93371582 C0 2.49995964 0 2.49995964 0 0 Z " fill="#FFFFFF" transform="translate(2023,700)"/>
<path d="M0 0 C7.29414965 -1.91844176 14.94343686 -3.22602447 22 0 C28.92838503 7.1994346 33.15369708 16.68047502 37.33447266 25.65673828 C39.00769041 29.01543718 40.85734121 31.92996532 43 35 C46.22631848 31.25821582 48.44489955 27.36270957 50.58984375 22.94921875 C61.43416499 1.72249491 61.43416499 1.72249491 67.89599609 -1.39892578 C74.06831174 -2.5955057 80.00464132 -1.73817268 86 0 C82.43705803 7.55330746 78.29191347 14.69143769 73.92651367 21.80212402 C72.78610408 23.66819202 71.660391 25.54252438 70.53710938 27.41894531 C64.26785098 37.84164414 64.26785098 37.84164414 60.69921875 42.2578125 C50.80343094 54.80764957 52.68557401 70.75958748 53 86 C46.07 86 39.14 86 32 86 C32.12503906 84.01484375 32.25007813 82.0296875 32.37890625 79.984375 C33.0854423 58.90974979 28.45090247 46.3048113 16.31542969 29.30859375 C12.57256954 24.03007102 9.28061091 18.47486989 5.9375 12.9375 C5.33655518 11.97320068 4.73561035 11.00890137 4.11645508 10.01538086 C3.57142334 9.13245361 3.0263916 8.24952637 2.46484375 7.33984375 C1.986521 6.57019287 1.50819824 5.80054199 1.01538086 5.00756836 C0 3 0 3 0 0 Z " fill="#FFFFFF" transform="translate(4012,700)"/>
<path d="M0 0 C18.38295641 -2.50830158 18.38295641 -2.50830158 23.84619141 1.28027344 C27.03208583 4.8928788 28.91446157 9.21562784 30.85205078 13.5859375 C32.90403747 17.90113196 35.56029405 21.8512124 38.125 25.875 C39.07191148 27.38899283 40.01258494 28.90691537 40.9453125 30.4296875 C41.54110107 31.39237549 41.54110107 31.39237549 42.14892578 32.37451172 C43 34 43 34 43 36 C43.66 36 44.32 36 45 36 C45.24548584 35.31969727 45.49097168 34.63939453 45.74389648 33.93847656 C47.24191811 30.43406678 49.12670174 27.23555345 51.09765625 23.984375 C51.49198349 23.32794006 51.88631073 22.67150513 52.29258728 21.99517822 C53.12211888 20.61585978 53.95341508 19.2376012 54.78637695 17.86035156 C56.06538206 15.74523388 57.33879174 13.62682704 58.61132812 11.5078125 C59.41894763 10.16647202 60.22687934 8.82531944 61.03515625 7.484375 C61.41744888 6.84900818 61.79974152 6.21364136 62.19361877 5.559021 C64.88334227 1.11665773 64.88334227 1.11665773 66 0 C67.4887186 -0.08669432 68.981445 -0.10703494 70.47265625 -0.09765625 C71.37177734 -0.09443359 72.27089844 -0.09121094 73.19726562 -0.08789062 C74.61555664 -0.07532227 74.61555664 -0.07532227 76.0625 -0.0625 C77.4865918 -0.05573242 77.4865918 -0.05573242 78.93945312 -0.04882812 C81.29303065 -0.0370011 83.64648477 -0.02052025 86 0 C84.68526483 4.40892817 82.95886196 8.02829989 80.54296875 11.9375 C80.20328568 12.49025604 79.8636026 13.04301208 79.5136261 13.61251831 C78.78610622 14.79579934 78.05623863 15.97763963 77.32421875 17.15814209 C76.168597 19.03062908 75.02968356 20.91240603 73.89453125 22.79736328 C70.42188306 28.54649173 66.91628466 34.20386401 63.01953125 39.6796875 C52.60740533 54.76773311 52.2690297 68.2410166 53 86 C46.4 86 39.8 86 33 86 C33.18755859 83.14794922 33.18755859 83.14794922 33.37890625 80.23828125 C34.10769586 59.34182195 29.00495648 46.49087707 17.31103516 29.42285156 C13.64424933 24.04918968 10.35132489 18.44888497 7 12.875 C4.56708649 8.93172116 4.56708649 8.93172116 2.12890625 4.99169922 C1 3 1 3 0 0 Z " fill="#FFFFFF" transform="translate(1353,700)"/>
<path d="M0 0 C24.75 0 49.5 0 75 0 C75 5.61 75 11.22 75 17 C66.09 17 57.18 17 48 17 C48 39.77 48 62.54 48 86 C41.07 86 34.14 86 27 86 C27 63.23 27 40.46 27 17 C18.09 17 9.18 17 0 17 C0 11.39 0 5.78 0 0 Z " fill="#FFFFFF" transform="translate(3916,700)"/>
<path d="M0 0 C24.75 0 49.5 0 75 0 C75 5.61 75 11.22 75 17 C66.09 17 57.18 17 48 17 C48 39.77 48 62.54 48 86 C41.07 86 34.14 86 27 86 C27 63.23 27 40.46 27 17 C18.09 17 9.18 17 0 17 C0 11.39 0 5.78 0 0 Z " fill="#FFFFFF" transform="translate(3574,700)"/>
<path d="M0 0 C24.75 0 49.5 0 75 0 C75 5.61 75 11.22 75 17 C66.09 17 57.18 17 48 17 C48 39.77 48 62.54 48 86 C41.07 86 34.14 86 27 86 C27 63.23 27 40.46 27 17 C18.09 17 9.18 17 0 17 C0 11.39 0 5.78 0 0 Z " fill="#FFFFFF" transform="translate(1562,700)"/>
<path d="M0 0 C24.42 0 48.84 0 74 0 C74 5.61 74 11.22 74 17 C65.09 17 56.18 17 47 17 C47 39.77 47 62.54 47 86 C40.4 86 33.8 86 27 86 C27 63.23 27 40.46 27 17 C18.09 17 9.18 17 0 17 C0 11.39 0 5.78 0 0 Z " fill="#FFFFFF" transform="translate(2473,700)"/>
<path d="M0 0 C6.6 0 13.2 0 20 0 C20 22.77 20 45.54 20 69 C34.19 69 48.38 69 63 69 C63 74.61 63 80.22 63 86 C42.21 86 21.42 86 0 86 C0 57.62 0 29.24 0 0 Z " fill="#FFFFFF" transform="translate(3779,700)"/>
<path d="M0 0 C6.93 0 13.86 0 21 0 C21 28.38 21 56.76 21 86 C14.07 86 7.14 86 0 86 C0 57.62 0 29.24 0 0 Z " fill="#FFFFFF" transform="translate(3527,700)"/>
<path d="M0 0 C6.6 0 13.2 0 20 0 C20 28.38 20 56.76 20 86 C13.4 86 6.8 86 0 86 C0 57.62 0 29.24 0 0 Z " fill="#FFFFFF" transform="translate(3869,700)"/>
</svg>
